%TF.GenerationSoftware,KiCad,Pcbnew,8.0.3*%
%TF.CreationDate,2024-08-18T23:13:00-04:00*%
%TF.ProjectId,MACROPAD,4d414352-4f50-4414-942e-6b696361645f,rev?*%
%TF.SameCoordinates,Original*%
%TF.FileFunction,Legend,Top*%
%TF.FilePolarity,Positive*%
%FSLAX46Y46*%
G04 Gerber Fmt 4.6, Leading zero omitted, Abs format (unit mm)*
G04 Created by KiCad (PCBNEW 8.0.3) date 2024-08-18 23:13:00*
%MOMM*%
%LPD*%
G01*
G04 APERTURE LIST*
%ADD10C,0.120000*%
%ADD11C,0.100000*%
%ADD12C,3.600000*%
%ADD13R,0.700000X0.700000*%
%ADD14C,1.900000*%
%ADD15C,3.450000*%
%ADD16R,1.750000X1.000000*%
%ADD17R,2.500000X4.000000*%
%ADD18C,1.600000*%
%ADD19C,0.650000*%
%ADD20O,1.000000X2.100000*%
%ADD21O,1.000000X1.600000*%
%ADD22O,1.700000X1.700000*%
%ADD23R,1.700000X1.700000*%
G04 APERTURE END LIST*
D10*
%TO.C,D18*%
X161570000Y-123631250D02*
X161570000Y-122981250D01*
X161570000Y-123631250D02*
X158730000Y-123631250D01*
X161570000Y-121331250D02*
X158730000Y-121331250D01*
%TO.C,D17*%
X143570000Y-123631250D02*
X143570000Y-122981250D01*
X143570000Y-123631250D02*
X140730000Y-123631250D01*
X143570000Y-121331250D02*
X140730000Y-121331250D01*
%TO.C,D16*%
X125570000Y-123631250D02*
X125570000Y-122981250D01*
X125570000Y-123631250D02*
X122730000Y-123631250D01*
X125570000Y-121331250D02*
X122730000Y-121331250D01*
%TO.C,D15*%
X161570000Y-106631250D02*
X161570000Y-105981250D01*
X161570000Y-106631250D02*
X158730000Y-106631250D01*
X161570000Y-104331250D02*
X158730000Y-104331250D01*
%TO.C,D14*%
X143570000Y-106631250D02*
X143570000Y-105981250D01*
X143570000Y-106631250D02*
X140730000Y-106631250D01*
X143570000Y-104331250D02*
X140730000Y-104331250D01*
%TO.C,D13*%
X125570000Y-106631250D02*
X125570000Y-105981250D01*
X125570000Y-106631250D02*
X122730000Y-106631250D01*
X125570000Y-104331250D02*
X122730000Y-104331250D01*
%TO.C,D12*%
X161570000Y-89631250D02*
X161570000Y-88981250D01*
X161570000Y-89631250D02*
X158730000Y-89631250D01*
X161570000Y-87331250D02*
X158730000Y-87331250D01*
%TO.C,D11*%
X143570000Y-89631250D02*
X143570000Y-88981250D01*
X143570000Y-89631250D02*
X140730000Y-89631250D01*
X143570000Y-87331250D02*
X140730000Y-87331250D01*
%TO.C,D10*%
X125570000Y-89631250D02*
X125570000Y-88981250D01*
X125570000Y-89631250D02*
X122730000Y-89631250D01*
X125570000Y-87331250D02*
X122730000Y-87331250D01*
%TO.C,S1*%
X131750000Y-91300000D02*
X131750000Y-76100000D01*
X131750000Y-76100000D02*
X116550000Y-76100000D01*
X116550000Y-91300000D02*
X131750000Y-91300000D01*
X116550000Y-76100000D02*
X116550000Y-91300000D01*
%TO.C,S3*%
X167750000Y-91300000D02*
X167750000Y-76100000D01*
X167750000Y-76100000D02*
X152550000Y-76100000D01*
X152550000Y-91300000D02*
X167750000Y-91300000D01*
X152550000Y-76100000D02*
X152550000Y-91300000D01*
%TO.C,S2*%
X149750000Y-91300000D02*
X149750000Y-76100000D01*
X149750000Y-76100000D02*
X134550000Y-76100000D01*
X134550000Y-91300000D02*
X149750000Y-91300000D01*
X134550000Y-76100000D02*
X134550000Y-91300000D01*
%TO.C,S8*%
X149750000Y-125300000D02*
X149750000Y-110100000D01*
X149750000Y-110100000D02*
X134550000Y-110100000D01*
X134550000Y-125300000D02*
X149750000Y-125300000D01*
X134550000Y-110100000D02*
X134550000Y-125300000D01*
%TO.C,S9*%
X167750000Y-125300000D02*
X167750000Y-110100000D01*
X167750000Y-110100000D02*
X152550000Y-110100000D01*
X152550000Y-125300000D02*
X167750000Y-125300000D01*
X152550000Y-110100000D02*
X152550000Y-125300000D01*
%TO.C,S5*%
X149750000Y-108300000D02*
X149750000Y-93100000D01*
X149750000Y-93100000D02*
X134550000Y-93100000D01*
X134550000Y-108300000D02*
X149750000Y-108300000D01*
X134550000Y-93100000D02*
X134550000Y-108300000D01*
%TO.C,S4*%
X131750000Y-108300000D02*
X131750000Y-93100000D01*
X131750000Y-93100000D02*
X116550000Y-93100000D01*
X116550000Y-108300000D02*
X131750000Y-108300000D01*
X116550000Y-93100000D02*
X116550000Y-108300000D01*
%TO.C,S6*%
X167750000Y-108300000D02*
X167750000Y-93100000D01*
X167750000Y-93100000D02*
X152550000Y-93100000D01*
X152550000Y-108300000D02*
X167750000Y-108300000D01*
X152550000Y-93100000D02*
X152550000Y-108300000D01*
%TO.C,S7*%
X131750000Y-125300000D02*
X131750000Y-110100000D01*
X131750000Y-110100000D02*
X116550000Y-110100000D01*
X116550000Y-125300000D02*
X131750000Y-125300000D01*
X116550000Y-110100000D02*
X116550000Y-125300000D01*
D11*
%TO.C,SW2*%
X124900000Y-62012500D02*
G75*
G02*
X118900000Y-62012500I-3000000J0D01*
G01*
X118900000Y-62012500D02*
G75*
G02*
X124900000Y-62012500I3000000J0D01*
G01*
%TD*%
%LPC*%
D12*
%TO.C,H4*%
X151150000Y-109200000D03*
%TD*%
%TO.C,H3*%
X133150000Y-109200000D03*
%TD*%
%TO.C,H2*%
X151150000Y-92200000D03*
%TD*%
%TO.C,H1*%
X133150000Y-92200000D03*
%TD*%
D13*
%TO.C,D18*%
X161065000Y-123031250D03*
X161065000Y-121931250D03*
X159235000Y-121931250D03*
X159235000Y-123031250D03*
%TD*%
%TO.C,D17*%
X143065000Y-123031250D03*
X143065000Y-121931250D03*
X141235000Y-121931250D03*
X141235000Y-123031250D03*
%TD*%
%TO.C,D16*%
X125065000Y-123031250D03*
X125065000Y-121931250D03*
X123235000Y-121931250D03*
X123235000Y-123031250D03*
%TD*%
%TO.C,D15*%
X161065000Y-106031250D03*
X161065000Y-104931250D03*
X159235000Y-104931250D03*
X159235000Y-106031250D03*
%TD*%
%TO.C,D14*%
X143065000Y-106031250D03*
X143065000Y-104931250D03*
X141235000Y-104931250D03*
X141235000Y-106031250D03*
%TD*%
%TO.C,D13*%
X125065000Y-106031250D03*
X125065000Y-104931250D03*
X123235000Y-104931250D03*
X123235000Y-106031250D03*
%TD*%
%TO.C,D12*%
X161065000Y-89031250D03*
X161065000Y-87931250D03*
X159235000Y-87931250D03*
X159235000Y-89031250D03*
%TD*%
%TO.C,D11*%
X143065000Y-89031250D03*
X143065000Y-87931250D03*
X141235000Y-87931250D03*
X141235000Y-89031250D03*
%TD*%
%TO.C,D10*%
X125065000Y-89031250D03*
X125065000Y-87931250D03*
X123235000Y-87931250D03*
X123235000Y-89031250D03*
%TD*%
D12*
%TO.C,S1*%
X129150000Y-79900000D03*
X124150000Y-77800000D03*
D14*
X129650000Y-83700000D03*
D15*
X124150000Y-83700000D03*
D14*
X118650000Y-83700000D03*
%TD*%
D12*
%TO.C,S3*%
X165150000Y-79900000D03*
X160150000Y-77800000D03*
D14*
X165650000Y-83700000D03*
D15*
X160150000Y-83700000D03*
D14*
X154650000Y-83700000D03*
%TD*%
D12*
%TO.C,S2*%
X147150000Y-79900000D03*
X142150000Y-77800000D03*
D14*
X147650000Y-83700000D03*
D15*
X142150000Y-83700000D03*
D14*
X136650000Y-83700000D03*
%TD*%
D12*
%TO.C,S8*%
X147150000Y-113900000D03*
X142150000Y-111800000D03*
D14*
X147650000Y-117700000D03*
D15*
X142150000Y-117700000D03*
D14*
X136650000Y-117700000D03*
%TD*%
D12*
%TO.C,S9*%
X165150000Y-113900000D03*
X160150000Y-111800000D03*
D14*
X165650000Y-117700000D03*
D15*
X160150000Y-117700000D03*
D14*
X154650000Y-117700000D03*
%TD*%
D12*
%TO.C,S5*%
X147150000Y-96900000D03*
X142150000Y-94800000D03*
D14*
X147650000Y-100700000D03*
D15*
X142150000Y-100700000D03*
D14*
X136650000Y-100700000D03*
%TD*%
D12*
%TO.C,S4*%
X129150000Y-96900000D03*
X124150000Y-94800000D03*
D14*
X129650000Y-100700000D03*
D15*
X124150000Y-100700000D03*
D14*
X118650000Y-100700000D03*
%TD*%
D12*
%TO.C,S6*%
X165150000Y-96900000D03*
X160150000Y-94800000D03*
D14*
X165650000Y-100700000D03*
D15*
X160150000Y-100700000D03*
D14*
X154650000Y-100700000D03*
%TD*%
D12*
%TO.C,S7*%
X129150000Y-113900000D03*
X124150000Y-111800000D03*
D14*
X129650000Y-117700000D03*
D15*
X124150000Y-117700000D03*
D14*
X118650000Y-117700000D03*
%TD*%
D16*
%TO.C,SW1*%
X115775000Y-51200000D03*
X123525000Y-51200000D03*
%TD*%
D17*
%TO.C,SW2*%
X127500000Y-62012500D03*
X116300000Y-62012500D03*
D18*
X124400000Y-55012500D03*
X119400000Y-55012500D03*
X121900000Y-69512500D03*
X124400000Y-69512500D03*
X119400000Y-69512500D03*
%TD*%
D19*
%TO.C,J1*%
X160940000Y-53742500D03*
X166720000Y-53742500D03*
D20*
X159510000Y-54272500D03*
D21*
X159510000Y-50092500D03*
D20*
X168150000Y-54272500D03*
D21*
X168150000Y-50092500D03*
%TD*%
D22*
%TO.C,J2*%
X167747500Y-68332500D03*
X167747500Y-65792500D03*
X167747500Y-63252500D03*
D23*
X167747500Y-60712500D03*
%TD*%
%LPD*%
M02*
