%TF.GenerationSoftware,KiCad,Pcbnew,8.0.3*%
%TF.CreationDate,2024-08-18T23:13:00-04:00*%
%TF.ProjectId,MACROPAD,4d414352-4f50-4414-942e-6b696361645f,rev?*%
%TF.SameCoordinates,Original*%
%TF.FileFunction,Legend,Bot*%
%TF.FilePolarity,Positive*%
%FSLAX46Y46*%
G04 Gerber Fmt 4.6, Leading zero omitted, Abs format (unit mm)*
G04 Created by KiCad (PCBNEW 8.0.3) date 2024-08-18 23:13:00*
%MOMM*%
%LPD*%
G01*
G04 APERTURE LIST*
G04 Aperture macros list*
%AMRoundRect*
0 Rectangle with rounded corners*
0 $1 Rounding radius*
0 $2 $3 $4 $5 $6 $7 $8 $9 X,Y pos of 4 corners*
0 Add a 4 corners polygon primitive as box body*
4,1,4,$2,$3,$4,$5,$6,$7,$8,$9,$2,$3,0*
0 Add four circle primitives for the rounded corners*
1,1,$1+$1,$2,$3*
1,1,$1+$1,$4,$5*
1,1,$1+$1,$6,$7*
1,1,$1+$1,$8,$9*
0 Add four rect primitives between the rounded corners*
20,1,$1+$1,$2,$3,$4,$5,0*
20,1,$1+$1,$4,$5,$6,$7,0*
20,1,$1+$1,$6,$7,$8,$9,0*
20,1,$1+$1,$8,$9,$2,$3,0*%
G04 Aperture macros list end*
%ADD10C,0.150000*%
%ADD11C,0.120000*%
%ADD12C,0.000000*%
%ADD13C,0.100000*%
%ADD14C,3.600000*%
%ADD15RoundRect,0.135000X-0.135000X-0.185000X0.135000X-0.185000X0.135000X0.185000X-0.135000X0.185000X0*%
%ADD16RoundRect,0.135000X0.135000X0.185000X-0.135000X0.185000X-0.135000X-0.185000X0.135000X-0.185000X0*%
%ADD17RoundRect,0.140000X0.170000X-0.140000X0.170000X0.140000X-0.170000X0.140000X-0.170000X-0.140000X0*%
%ADD18RoundRect,0.140000X-0.140000X-0.170000X0.140000X-0.170000X0.140000X0.170000X-0.140000X0.170000X0*%
%ADD19RoundRect,0.250000X-1.025000X-1.000000X1.025000X-1.000000X1.025000X1.000000X-1.025000X1.000000X0*%
%ADD20C,1.900000*%
%ADD21C,3.450000*%
%ADD22R,2.500000X4.000000*%
%ADD23C,1.600000*%
%ADD24C,0.650000*%
%ADD25R,0.600000X1.450000*%
%ADD26R,0.300000X1.450000*%
%ADD27O,1.000000X2.100000*%
%ADD28O,1.000000X1.600000*%
%ADD29O,1.700000X1.700000*%
%ADD30R,1.700000X1.700000*%
%ADD31RoundRect,0.225000X0.375000X-0.225000X0.375000X0.225000X-0.375000X0.225000X-0.375000X-0.225000X0*%
%ADD32RoundRect,0.150000X0.500000X0.150000X-0.500000X0.150000X-0.500000X-0.150000X0.500000X-0.150000X0*%
%ADD33R,1.500000X0.550000*%
%ADD34R,0.550000X1.500000*%
%ADD35RoundRect,0.140000X-0.170000X0.140000X-0.170000X-0.140000X0.170000X-0.140000X0.170000X0.140000X0*%
%ADD36R,1.200000X1.400000*%
G04 APERTURE END LIST*
D10*
X147210671Y-57053510D02*
X147715748Y-57558587D01*
X147715748Y-57558587D02*
X147850435Y-57625930D01*
X147850435Y-57625930D02*
X147985122Y-57625930D01*
X147985122Y-57625930D02*
X148119809Y-57558587D01*
X148119809Y-57558587D02*
X148187152Y-57491243D01*
X147244343Y-58434052D02*
X147581061Y-58097335D01*
X147581061Y-58097335D02*
X146873954Y-57390228D01*
X146537236Y-59006472D02*
X146604580Y-59006472D01*
X146604580Y-59006472D02*
X146739267Y-58939129D01*
X146739267Y-58939129D02*
X146806610Y-58871785D01*
X146806610Y-58871785D02*
X146873954Y-58737098D01*
X146873954Y-58737098D02*
X146873954Y-58602411D01*
X146873954Y-58602411D02*
X146840282Y-58501396D01*
X146840282Y-58501396D02*
X146739267Y-58333037D01*
X146739267Y-58333037D02*
X146638251Y-58232022D01*
X146638251Y-58232022D02*
X146469893Y-58131007D01*
X146469893Y-58131007D02*
X146368877Y-58097335D01*
X146368877Y-58097335D02*
X146234190Y-58097335D01*
X146234190Y-58097335D02*
X146099503Y-58164678D01*
X146099503Y-58164678D02*
X146032160Y-58232022D01*
X146032160Y-58232022D02*
X145964816Y-58366709D01*
X145964816Y-58366709D02*
X145964816Y-58434052D01*
X145392397Y-58871785D02*
X145897473Y-59376861D01*
X145897473Y-59376861D02*
X146032160Y-59444205D01*
X146032160Y-59444205D02*
X146166847Y-59444205D01*
X146166847Y-59444205D02*
X146301534Y-59376861D01*
X146301534Y-59376861D02*
X146368877Y-59309518D01*
X145426068Y-60252327D02*
X145762786Y-59915610D01*
X145762786Y-59915610D02*
X145055679Y-59208503D01*
X144718961Y-60824747D02*
X144786305Y-60824747D01*
X144786305Y-60824747D02*
X144920992Y-60757404D01*
X144920992Y-60757404D02*
X144988335Y-60690060D01*
X144988335Y-60690060D02*
X145055679Y-60555373D01*
X145055679Y-60555373D02*
X145055679Y-60420686D01*
X145055679Y-60420686D02*
X145022007Y-60319671D01*
X145022007Y-60319671D02*
X144920992Y-60151312D01*
X144920992Y-60151312D02*
X144819977Y-60050297D01*
X144819977Y-60050297D02*
X144651618Y-59949282D01*
X144651618Y-59949282D02*
X144550603Y-59915610D01*
X144550603Y-59915610D02*
X144415916Y-59915610D01*
X144415916Y-59915610D02*
X144281229Y-59982953D01*
X144281229Y-59982953D02*
X144213885Y-60050297D01*
X144213885Y-60050297D02*
X144146542Y-60184984D01*
X144146542Y-60184984D02*
X144146542Y-60252327D01*
X143574122Y-60690060D02*
X144079198Y-61195136D01*
X144079198Y-61195136D02*
X144213885Y-61262480D01*
X144213885Y-61262480D02*
X144348572Y-61262480D01*
X144348572Y-61262480D02*
X144483259Y-61195136D01*
X144483259Y-61195136D02*
X144550603Y-61127793D01*
X143607793Y-62070602D02*
X143944511Y-61733885D01*
X143944511Y-61733885D02*
X143237404Y-61026778D01*
X142900686Y-62643022D02*
X142968030Y-62643022D01*
X142968030Y-62643022D02*
X143102717Y-62575678D01*
X143102717Y-62575678D02*
X143170060Y-62508335D01*
X143170060Y-62508335D02*
X143237404Y-62373648D01*
X143237404Y-62373648D02*
X143237404Y-62238961D01*
X143237404Y-62238961D02*
X143203732Y-62137946D01*
X143203732Y-62137946D02*
X143102717Y-61969587D01*
X143102717Y-61969587D02*
X143001702Y-61868572D01*
X143001702Y-61868572D02*
X142833343Y-61767556D01*
X142833343Y-61767556D02*
X142732328Y-61733885D01*
X142732328Y-61733885D02*
X142597641Y-61733885D01*
X142597641Y-61733885D02*
X142462954Y-61801228D01*
X142462954Y-61801228D02*
X142395610Y-61868572D01*
X142395610Y-61868572D02*
X142328267Y-62003259D01*
X142328267Y-62003259D02*
X142328267Y-62070602D01*
X141755847Y-62508335D02*
X142260923Y-63013411D01*
X142260923Y-63013411D02*
X142395610Y-63080755D01*
X142395610Y-63080755D02*
X142530297Y-63080755D01*
X142530297Y-63080755D02*
X142664984Y-63013411D01*
X142664984Y-63013411D02*
X142732328Y-62946068D01*
X141789518Y-63888877D02*
X142126236Y-63552159D01*
X142126236Y-63552159D02*
X141419129Y-62845053D01*
X141082412Y-64461297D02*
X141149755Y-64461297D01*
X141149755Y-64461297D02*
X141284442Y-64393953D01*
X141284442Y-64393953D02*
X141351786Y-64326610D01*
X141351786Y-64326610D02*
X141419129Y-64191923D01*
X141419129Y-64191923D02*
X141419129Y-64057236D01*
X141419129Y-64057236D02*
X141385457Y-63956221D01*
X141385457Y-63956221D02*
X141284442Y-63787862D01*
X141284442Y-63787862D02*
X141183427Y-63686847D01*
X141183427Y-63686847D02*
X141015068Y-63585831D01*
X141015068Y-63585831D02*
X140914053Y-63552160D01*
X140914053Y-63552160D02*
X140779366Y-63552160D01*
X140779366Y-63552160D02*
X140644679Y-63619503D01*
X140644679Y-63619503D02*
X140577335Y-63686847D01*
X140577335Y-63686847D02*
X140509992Y-63821534D01*
X140509992Y-63821534D02*
X140509992Y-63888877D01*
D11*
%TO.C,R13*%
X164743641Y-67952500D02*
X164436359Y-67952500D01*
X164743641Y-68712500D02*
X164436359Y-68712500D01*
%TO.C,R12*%
X164743641Y-65412500D02*
X164436359Y-65412500D01*
X164743641Y-66172500D02*
X164436359Y-66172500D01*
%TO.C,R11*%
X135966359Y-56992500D02*
X136273641Y-56992500D01*
X135966359Y-56232500D02*
X136273641Y-56232500D01*
%TO.C,C10*%
X146890000Y-52804664D02*
X146890000Y-53020336D01*
X147610000Y-52804664D02*
X147610000Y-53020336D01*
%TO.C,C8*%
X141370000Y-52794664D02*
X141370000Y-53010336D01*
X140650000Y-52794664D02*
X140650000Y-53010336D01*
%TO.C,C3*%
X152167836Y-56192500D02*
X151952164Y-56192500D01*
X152167836Y-56912500D02*
X151952164Y-56912500D01*
%TO.C,C2*%
X148710000Y-52794664D02*
X148710000Y-53010336D01*
X147990000Y-52794664D02*
X147990000Y-53010336D01*
%TO.C,C1*%
X152137836Y-61252500D02*
X151922164Y-61252500D01*
X152137836Y-61972500D02*
X151922164Y-61972500D01*
%TO.C,S1*%
X131796000Y-82346000D02*
X127710000Y-82346000D01*
X131796000Y-81404000D02*
X131796000Y-82346000D01*
X131433000Y-81404000D02*
X131796000Y-81404000D01*
X131431000Y-78091000D02*
X131516000Y-78518000D01*
X131242000Y-77808000D02*
X131431000Y-78091000D01*
X130959000Y-77619000D02*
X131242000Y-77808000D01*
X130632000Y-77554000D02*
X130959000Y-77619000D01*
X127832000Y-77554000D02*
X130632000Y-77554000D01*
X127710000Y-82346000D02*
X127400000Y-82287000D01*
X127400000Y-82287000D02*
X127126000Y-82117000D01*
X127394000Y-77467000D02*
X127832000Y-77554000D01*
X127126000Y-82117000D02*
X126933000Y-81859000D01*
X127027000Y-77223000D02*
X127394000Y-77467000D01*
X126933000Y-81859000D02*
X126851000Y-81561000D01*
X126851000Y-81561000D02*
X126697000Y-81003000D01*
X126783000Y-76856000D02*
X127027000Y-77223000D01*
X126697000Y-81003000D02*
X126359000Y-80550000D01*
X126696000Y-76418000D02*
X126783000Y-76856000D01*
X126696000Y-76196000D02*
X126696000Y-76418000D01*
X126359000Y-80550000D02*
X125880000Y-80251000D01*
X126163000Y-75663000D02*
X126696000Y-76196000D01*
X125880000Y-80251000D02*
X125318000Y-80146000D01*
X125821000Y-75434000D02*
X126163000Y-75663000D01*
X125418000Y-75354000D02*
X125821000Y-75434000D01*
X125318000Y-80146000D02*
X122671000Y-80146000D01*
X122671000Y-80146000D02*
X121650000Y-79125000D01*
X122671000Y-75354000D02*
X125418000Y-75354000D01*
X121734000Y-76291000D02*
X122671000Y-75354000D01*
%TO.C,S3*%
X167796000Y-82346000D02*
X163710000Y-82346000D01*
X167796000Y-81404000D02*
X167796000Y-82346000D01*
X167433000Y-81404000D02*
X167796000Y-81404000D01*
X167431000Y-78091000D02*
X167516000Y-78518000D01*
X167242000Y-77808000D02*
X167431000Y-78091000D01*
X166959000Y-77619000D02*
X167242000Y-77808000D01*
X166632000Y-77554000D02*
X166959000Y-77619000D01*
X163832000Y-77554000D02*
X166632000Y-77554000D01*
X163710000Y-82346000D02*
X163400000Y-82287000D01*
X163400000Y-82287000D02*
X163126000Y-82117000D01*
X163394000Y-77467000D02*
X163832000Y-77554000D01*
X163126000Y-82117000D02*
X162933000Y-81859000D01*
X163027000Y-77223000D02*
X163394000Y-77467000D01*
X162933000Y-81859000D02*
X162851000Y-81561000D01*
X162851000Y-81561000D02*
X162697000Y-81003000D01*
X162783000Y-76856000D02*
X163027000Y-77223000D01*
X162697000Y-81003000D02*
X162359000Y-80550000D01*
X162696000Y-76418000D02*
X162783000Y-76856000D01*
X162696000Y-76196000D02*
X162696000Y-76418000D01*
X162359000Y-80550000D02*
X161880000Y-80251000D01*
X162163000Y-75663000D02*
X162696000Y-76196000D01*
X161880000Y-80251000D02*
X161318000Y-80146000D01*
X161821000Y-75434000D02*
X162163000Y-75663000D01*
X161418000Y-75354000D02*
X161821000Y-75434000D01*
X161318000Y-80146000D02*
X158671000Y-80146000D01*
X158671000Y-80146000D02*
X157650000Y-79125000D01*
X158671000Y-75354000D02*
X161418000Y-75354000D01*
X157734000Y-76291000D02*
X158671000Y-75354000D01*
%TO.C,S2*%
X149796000Y-82346000D02*
X145710000Y-82346000D01*
X149796000Y-81404000D02*
X149796000Y-82346000D01*
X149433000Y-81404000D02*
X149796000Y-81404000D01*
X149431000Y-78091000D02*
X149516000Y-78518000D01*
X149242000Y-77808000D02*
X149431000Y-78091000D01*
X148959000Y-77619000D02*
X149242000Y-77808000D01*
X148632000Y-77554000D02*
X148959000Y-77619000D01*
X145832000Y-77554000D02*
X148632000Y-77554000D01*
X145710000Y-82346000D02*
X145400000Y-82287000D01*
X145400000Y-82287000D02*
X145126000Y-82117000D01*
X145394000Y-77467000D02*
X145832000Y-77554000D01*
X145126000Y-82117000D02*
X144933000Y-81859000D01*
X145027000Y-77223000D02*
X145394000Y-77467000D01*
X144933000Y-81859000D02*
X144851000Y-81561000D01*
X144851000Y-81561000D02*
X144697000Y-81003000D01*
X144783000Y-76856000D02*
X145027000Y-77223000D01*
X144697000Y-81003000D02*
X144359000Y-80550000D01*
X144696000Y-76418000D02*
X144783000Y-76856000D01*
X144696000Y-76196000D02*
X144696000Y-76418000D01*
X144359000Y-80550000D02*
X143880000Y-80251000D01*
X144163000Y-75663000D02*
X144696000Y-76196000D01*
X143880000Y-80251000D02*
X143318000Y-80146000D01*
X143821000Y-75434000D02*
X144163000Y-75663000D01*
X143418000Y-75354000D02*
X143821000Y-75434000D01*
X143318000Y-80146000D02*
X140671000Y-80146000D01*
X140671000Y-80146000D02*
X139650000Y-79125000D01*
X140671000Y-75354000D02*
X143418000Y-75354000D01*
X139734000Y-76291000D02*
X140671000Y-75354000D01*
%TO.C,S8*%
X149796000Y-116346000D02*
X145710000Y-116346000D01*
X149796000Y-115404000D02*
X149796000Y-116346000D01*
X149433000Y-115404000D02*
X149796000Y-115404000D01*
X149431000Y-112091000D02*
X149516000Y-112518000D01*
X149242000Y-111808000D02*
X149431000Y-112091000D01*
X148959000Y-111619000D02*
X149242000Y-111808000D01*
X148632000Y-111554000D02*
X148959000Y-111619000D01*
X145832000Y-111554000D02*
X148632000Y-111554000D01*
X145710000Y-116346000D02*
X145400000Y-116287000D01*
X145400000Y-116287000D02*
X145126000Y-116117000D01*
X145394000Y-111467000D02*
X145832000Y-111554000D01*
X145126000Y-116117000D02*
X144933000Y-115859000D01*
X145027000Y-111223000D02*
X145394000Y-111467000D01*
X144933000Y-115859000D02*
X144851000Y-115561000D01*
X144851000Y-115561000D02*
X144697000Y-115003000D01*
X144783000Y-110856000D02*
X145027000Y-111223000D01*
X144697000Y-115003000D02*
X144359000Y-114550000D01*
X144696000Y-110418000D02*
X144783000Y-110856000D01*
X144696000Y-110196000D02*
X144696000Y-110418000D01*
X144359000Y-114550000D02*
X143880000Y-114251000D01*
X144163000Y-109663000D02*
X144696000Y-110196000D01*
X143880000Y-114251000D02*
X143318000Y-114146000D01*
X143821000Y-109434000D02*
X144163000Y-109663000D01*
X143418000Y-109354000D02*
X143821000Y-109434000D01*
X143318000Y-114146000D02*
X140671000Y-114146000D01*
X140671000Y-114146000D02*
X139650000Y-113125000D01*
X140671000Y-109354000D02*
X143418000Y-109354000D01*
X139734000Y-110291000D02*
X140671000Y-109354000D01*
%TO.C,S9*%
X167796000Y-116346000D02*
X163710000Y-116346000D01*
X167796000Y-115404000D02*
X167796000Y-116346000D01*
X167433000Y-115404000D02*
X167796000Y-115404000D01*
X167431000Y-112091000D02*
X167516000Y-112518000D01*
X167242000Y-111808000D02*
X167431000Y-112091000D01*
X166959000Y-111619000D02*
X167242000Y-111808000D01*
X166632000Y-111554000D02*
X166959000Y-111619000D01*
X163832000Y-111554000D02*
X166632000Y-111554000D01*
X163710000Y-116346000D02*
X163400000Y-116287000D01*
X163400000Y-116287000D02*
X163126000Y-116117000D01*
X163394000Y-111467000D02*
X163832000Y-111554000D01*
X163126000Y-116117000D02*
X162933000Y-115859000D01*
X163027000Y-111223000D02*
X163394000Y-111467000D01*
X162933000Y-115859000D02*
X162851000Y-115561000D01*
X162851000Y-115561000D02*
X162697000Y-115003000D01*
X162783000Y-110856000D02*
X163027000Y-111223000D01*
X162697000Y-115003000D02*
X162359000Y-114550000D01*
X162696000Y-110418000D02*
X162783000Y-110856000D01*
X162696000Y-110196000D02*
X162696000Y-110418000D01*
X162359000Y-114550000D02*
X161880000Y-114251000D01*
X162163000Y-109663000D02*
X162696000Y-110196000D01*
X161880000Y-114251000D02*
X161318000Y-114146000D01*
X161821000Y-109434000D02*
X162163000Y-109663000D01*
X161418000Y-109354000D02*
X161821000Y-109434000D01*
X161318000Y-114146000D02*
X158671000Y-114146000D01*
X158671000Y-114146000D02*
X157650000Y-113125000D01*
X158671000Y-109354000D02*
X161418000Y-109354000D01*
X157734000Y-110291000D02*
X158671000Y-109354000D01*
%TO.C,S5*%
X149796000Y-99346000D02*
X145710000Y-99346000D01*
X149796000Y-98404000D02*
X149796000Y-99346000D01*
X149433000Y-98404000D02*
X149796000Y-98404000D01*
X149431000Y-95091000D02*
X149516000Y-95518000D01*
X149242000Y-94808000D02*
X149431000Y-95091000D01*
X148959000Y-94619000D02*
X149242000Y-94808000D01*
X148632000Y-94554000D02*
X148959000Y-94619000D01*
X145832000Y-94554000D02*
X148632000Y-94554000D01*
X145710000Y-99346000D02*
X145400000Y-99287000D01*
X145400000Y-99287000D02*
X145126000Y-99117000D01*
X145394000Y-94467000D02*
X145832000Y-94554000D01*
X145126000Y-99117000D02*
X144933000Y-98859000D01*
X145027000Y-94223000D02*
X145394000Y-94467000D01*
X144933000Y-98859000D02*
X144851000Y-98561000D01*
X144851000Y-98561000D02*
X144697000Y-98003000D01*
X144783000Y-93856000D02*
X145027000Y-94223000D01*
X144697000Y-98003000D02*
X144359000Y-97550000D01*
X144696000Y-93418000D02*
X144783000Y-93856000D01*
X144696000Y-93196000D02*
X144696000Y-93418000D01*
X144359000Y-97550000D02*
X143880000Y-97251000D01*
X144163000Y-92663000D02*
X144696000Y-93196000D01*
X143880000Y-97251000D02*
X143318000Y-97146000D01*
X143821000Y-92434000D02*
X144163000Y-92663000D01*
X143418000Y-92354000D02*
X143821000Y-92434000D01*
X143318000Y-97146000D02*
X140671000Y-97146000D01*
X140671000Y-97146000D02*
X139650000Y-96125000D01*
X140671000Y-92354000D02*
X143418000Y-92354000D01*
X139734000Y-93291000D02*
X140671000Y-92354000D01*
%TO.C,S4*%
X131796000Y-99346000D02*
X127710000Y-99346000D01*
X131796000Y-98404000D02*
X131796000Y-99346000D01*
X131433000Y-98404000D02*
X131796000Y-98404000D01*
X131431000Y-95091000D02*
X131516000Y-95518000D01*
X131242000Y-94808000D02*
X131431000Y-95091000D01*
X130959000Y-94619000D02*
X131242000Y-94808000D01*
X130632000Y-94554000D02*
X130959000Y-94619000D01*
X127832000Y-94554000D02*
X130632000Y-94554000D01*
X127710000Y-99346000D02*
X127400000Y-99287000D01*
X127400000Y-99287000D02*
X127126000Y-99117000D01*
X127394000Y-94467000D02*
X127832000Y-94554000D01*
X127126000Y-99117000D02*
X126933000Y-98859000D01*
X127027000Y-94223000D02*
X127394000Y-94467000D01*
X126933000Y-98859000D02*
X126851000Y-98561000D01*
X126851000Y-98561000D02*
X126697000Y-98003000D01*
X126783000Y-93856000D02*
X127027000Y-94223000D01*
X126697000Y-98003000D02*
X126359000Y-97550000D01*
X126696000Y-93418000D02*
X126783000Y-93856000D01*
X126696000Y-93196000D02*
X126696000Y-93418000D01*
X126359000Y-97550000D02*
X125880000Y-97251000D01*
X126163000Y-92663000D02*
X126696000Y-93196000D01*
X125880000Y-97251000D02*
X125318000Y-97146000D01*
X125821000Y-92434000D02*
X126163000Y-92663000D01*
X125418000Y-92354000D02*
X125821000Y-92434000D01*
X125318000Y-97146000D02*
X122671000Y-97146000D01*
X122671000Y-97146000D02*
X121650000Y-96125000D01*
X122671000Y-92354000D02*
X125418000Y-92354000D01*
X121734000Y-93291000D02*
X122671000Y-92354000D01*
%TO.C,S6*%
X167796000Y-99346000D02*
X163710000Y-99346000D01*
X167796000Y-98404000D02*
X167796000Y-99346000D01*
X167433000Y-98404000D02*
X167796000Y-98404000D01*
X167431000Y-95091000D02*
X167516000Y-95518000D01*
X167242000Y-94808000D02*
X167431000Y-95091000D01*
X166959000Y-94619000D02*
X167242000Y-94808000D01*
X166632000Y-94554000D02*
X166959000Y-94619000D01*
X163832000Y-94554000D02*
X166632000Y-94554000D01*
X163710000Y-99346000D02*
X163400000Y-99287000D01*
X163400000Y-99287000D02*
X163126000Y-99117000D01*
X163394000Y-94467000D02*
X163832000Y-94554000D01*
X163126000Y-99117000D02*
X162933000Y-98859000D01*
X163027000Y-94223000D02*
X163394000Y-94467000D01*
X162933000Y-98859000D02*
X162851000Y-98561000D01*
X162851000Y-98561000D02*
X162697000Y-98003000D01*
X162783000Y-93856000D02*
X163027000Y-94223000D01*
X162697000Y-98003000D02*
X162359000Y-97550000D01*
X162696000Y-93418000D02*
X162783000Y-93856000D01*
X162696000Y-93196000D02*
X162696000Y-93418000D01*
X162359000Y-97550000D02*
X161880000Y-97251000D01*
X162163000Y-92663000D02*
X162696000Y-93196000D01*
X161880000Y-97251000D02*
X161318000Y-97146000D01*
X161821000Y-92434000D02*
X162163000Y-92663000D01*
X161418000Y-92354000D02*
X161821000Y-92434000D01*
X161318000Y-97146000D02*
X158671000Y-97146000D01*
X158671000Y-97146000D02*
X157650000Y-96125000D01*
X158671000Y-92354000D02*
X161418000Y-92354000D01*
X157734000Y-93291000D02*
X158671000Y-92354000D01*
%TO.C,S7*%
X131796000Y-116346000D02*
X127710000Y-116346000D01*
X131796000Y-115404000D02*
X131796000Y-116346000D01*
X131433000Y-115404000D02*
X131796000Y-115404000D01*
X131431000Y-112091000D02*
X131516000Y-112518000D01*
X131242000Y-111808000D02*
X131431000Y-112091000D01*
X130959000Y-111619000D02*
X131242000Y-111808000D01*
X130632000Y-111554000D02*
X130959000Y-111619000D01*
X127832000Y-111554000D02*
X130632000Y-111554000D01*
X127710000Y-116346000D02*
X127400000Y-116287000D01*
X127400000Y-116287000D02*
X127126000Y-116117000D01*
X127394000Y-111467000D02*
X127832000Y-111554000D01*
X127126000Y-116117000D02*
X126933000Y-115859000D01*
X127027000Y-111223000D02*
X127394000Y-111467000D01*
X126933000Y-115859000D02*
X126851000Y-115561000D01*
X126851000Y-115561000D02*
X126697000Y-115003000D01*
X126783000Y-110856000D02*
X127027000Y-111223000D01*
X126697000Y-115003000D02*
X126359000Y-114550000D01*
X126696000Y-110418000D02*
X126783000Y-110856000D01*
X126696000Y-110196000D02*
X126696000Y-110418000D01*
X126359000Y-114550000D02*
X125880000Y-114251000D01*
X126163000Y-109663000D02*
X126696000Y-110196000D01*
X125880000Y-114251000D02*
X125318000Y-114146000D01*
X125821000Y-109434000D02*
X126163000Y-109663000D01*
X125418000Y-109354000D02*
X125821000Y-109434000D01*
X125318000Y-114146000D02*
X122671000Y-114146000D01*
X122671000Y-114146000D02*
X121650000Y-113125000D01*
X122671000Y-109354000D02*
X125418000Y-109354000D01*
X121734000Y-110291000D02*
X122671000Y-109354000D01*
D12*
%TO.C,G\u002A\u002A\u002A*%
G36*
X149642574Y-121871240D02*
G01*
X149905315Y-122060462D01*
X150139725Y-122367725D01*
X150301509Y-122746237D01*
X150322167Y-122832820D01*
X150376368Y-123245595D01*
X150401198Y-123764947D01*
X150396708Y-124312613D01*
X150362947Y-124810328D01*
X150299965Y-125179827D01*
X150275178Y-125253675D01*
X150089404Y-125587026D01*
X149826540Y-125885383D01*
X149770145Y-125933190D01*
X149387020Y-126158682D01*
X149040833Y-126180579D01*
X148735186Y-125998509D01*
X148574392Y-125765815D01*
X148538502Y-125524555D01*
X148628302Y-125346767D01*
X148818131Y-125279061D01*
X149082323Y-125368047D01*
X149167539Y-125416312D01*
X149319008Y-125430646D01*
X149474053Y-125283911D01*
X149610183Y-125037981D01*
X149719699Y-124605105D01*
X149758529Y-124093574D01*
X149730406Y-123559614D01*
X149639063Y-123059452D01*
X149488231Y-122649314D01*
X149281643Y-122385427D01*
X149235707Y-122343779D01*
X149164029Y-122143713D01*
X149240543Y-121945782D01*
X149440252Y-121836505D01*
X149642574Y-121871240D01*
G37*
G36*
X136292812Y-122780120D02*
G01*
X136258998Y-123327123D01*
X136213178Y-123912061D01*
X136158684Y-124495187D01*
X136098853Y-125036757D01*
X136037017Y-125497024D01*
X135976512Y-125836244D01*
X135920670Y-126014670D01*
X135833206Y-126094147D01*
X135640380Y-126077599D01*
X135400498Y-125905190D01*
X135135253Y-125599180D01*
X134866342Y-125181828D01*
X134615457Y-124675396D01*
X134451232Y-124095404D01*
X134429688Y-123646657D01*
X135104719Y-123646657D01*
X135112020Y-123803637D01*
X135174371Y-124185689D01*
X135279275Y-124482871D01*
X135451918Y-124796451D01*
X135464415Y-124482871D01*
X135466113Y-124445384D01*
X135483767Y-124158803D01*
X135513064Y-123754336D01*
X135548633Y-123306945D01*
X135559785Y-123163176D01*
X135579866Y-122796216D01*
X135581157Y-122540566D01*
X135562858Y-122444599D01*
X135486820Y-122481063D01*
X135353818Y-122671016D01*
X135230244Y-122969415D01*
X135139433Y-123315037D01*
X135104719Y-123646657D01*
X134429688Y-123646657D01*
X134421200Y-123469863D01*
X134523863Y-122874138D01*
X134755021Y-122377365D01*
X135027942Y-122055692D01*
X135378949Y-121783394D01*
X135732037Y-121629212D01*
X136045824Y-121610347D01*
X136278926Y-121743997D01*
X136288874Y-121764169D01*
X136311085Y-121958897D01*
X136311286Y-122310796D01*
X136302242Y-122540566D01*
X136292812Y-122780120D01*
G37*
G36*
X132007874Y-121604334D02*
G01*
X132051567Y-121817439D01*
X132051228Y-121823356D01*
X132017836Y-122025035D01*
X131940081Y-122382430D01*
X131829008Y-122852323D01*
X131695663Y-123391492D01*
X131551090Y-123956717D01*
X131406334Y-124504779D01*
X131272440Y-124992457D01*
X131160452Y-125376531D01*
X131081417Y-125613781D01*
X131067423Y-125647920D01*
X130930377Y-125842975D01*
X130730285Y-125875098D01*
X130709897Y-125871116D01*
X130535613Y-125755584D01*
X130339990Y-125483328D01*
X130116950Y-125042527D01*
X129860413Y-124421361D01*
X129564298Y-123608008D01*
X129452793Y-123294803D01*
X129294602Y-122873531D01*
X129161626Y-122545605D01*
X129074500Y-122363452D01*
X128997295Y-122170522D01*
X129032094Y-121958545D01*
X129184879Y-121839128D01*
X129404754Y-121844365D01*
X129640824Y-122006348D01*
X129711690Y-122118530D01*
X129846217Y-122407925D01*
X130005464Y-122808747D01*
X130168198Y-123270115D01*
X130288954Y-123623618D01*
X130433910Y-124019751D01*
X130550919Y-124307985D01*
X130622294Y-124442654D01*
X130675133Y-124409067D01*
X130764841Y-124193128D01*
X130879364Y-123803414D01*
X131012981Y-123257283D01*
X131133578Y-122748313D01*
X131276318Y-122222957D01*
X131406327Y-121861993D01*
X131535067Y-121641235D01*
X131674000Y-121536495D01*
X131834590Y-121523586D01*
X132007874Y-121604334D01*
G37*
G36*
X127915613Y-121883344D02*
G01*
X128310599Y-122187546D01*
X128637538Y-122490639D01*
X128815333Y-122722486D01*
X128854557Y-122901692D01*
X128832426Y-122979527D01*
X128678523Y-123128534D01*
X128457050Y-123149257D01*
X128252129Y-123024541D01*
X128163220Y-122933754D01*
X128039573Y-122862706D01*
X128018510Y-122891561D01*
X127974139Y-123081336D01*
X127929104Y-123409311D01*
X127890484Y-123829579D01*
X127875971Y-124019555D01*
X127836122Y-124480986D01*
X127796320Y-124871727D01*
X127763345Y-125122817D01*
X127757084Y-125159963D01*
X127746756Y-125360033D01*
X127839526Y-125458915D01*
X128087517Y-125520560D01*
X128361959Y-125608869D01*
X128539271Y-125792010D01*
X128523723Y-126050772D01*
X128516545Y-126068356D01*
X128455026Y-126151153D01*
X128336631Y-126191357D01*
X128124363Y-126189205D01*
X127781226Y-126144931D01*
X127270223Y-126058773D01*
X126972297Y-126003081D01*
X126593093Y-125910280D01*
X126372501Y-125809306D01*
X126278905Y-125682727D01*
X126280692Y-125513109D01*
X126297026Y-125458397D01*
X126421239Y-125349892D01*
X126695903Y-125319085D01*
X127072751Y-125319085D01*
X127206075Y-123907974D01*
X127214236Y-123821119D01*
X127264100Y-123268863D01*
X127306053Y-122768721D01*
X127335896Y-122372670D01*
X127349432Y-122132688D01*
X127363106Y-121978042D01*
X127452537Y-121779200D01*
X127633149Y-121747431D01*
X127915613Y-121883344D01*
G37*
G36*
X144550575Y-124194356D02*
G01*
X144517852Y-124832967D01*
X144425638Y-125311768D01*
X144263350Y-125668155D01*
X144020404Y-125939527D01*
X143810872Y-126079989D01*
X143376170Y-126205010D01*
X142938047Y-126142407D01*
X142871189Y-126106633D01*
X142665734Y-125871846D01*
X142486024Y-125489035D01*
X142350364Y-125004647D01*
X142277059Y-124465132D01*
X142257635Y-124044184D01*
X142260977Y-123962314D01*
X142913096Y-123962314D01*
X142931232Y-124385181D01*
X142995081Y-124822471D01*
X143092423Y-125199758D01*
X143211039Y-125442614D01*
X143277752Y-125509415D01*
X143414710Y-125580402D01*
X143494592Y-125545341D01*
X143640363Y-125357710D01*
X143775471Y-125060228D01*
X143868740Y-124712489D01*
X143888221Y-124541141D01*
X143895600Y-124160514D01*
X143875340Y-123724423D01*
X143832973Y-123298979D01*
X143774032Y-122950293D01*
X143704050Y-122744477D01*
X143668715Y-122708669D01*
X143526196Y-122719927D01*
X143348940Y-122869551D01*
X143169152Y-123116253D01*
X143019037Y-123418749D01*
X142930801Y-123735752D01*
X142913096Y-123962314D01*
X142260977Y-123962314D01*
X142277310Y-123562223D01*
X142370050Y-123174313D01*
X142554136Y-122814909D01*
X142847848Y-122418468D01*
X142930317Y-122318368D01*
X143205124Y-122019999D01*
X143419954Y-121863060D01*
X143613150Y-121817439D01*
X143910062Y-121888314D01*
X144187164Y-122149919D01*
X144387097Y-122601651D01*
X144508741Y-123240827D01*
X144550977Y-124064764D01*
X144550680Y-124160514D01*
X144550575Y-124194356D01*
G37*
G36*
X141643515Y-123493249D02*
G01*
X141623589Y-124003871D01*
X141601465Y-124542066D01*
X141579116Y-125060538D01*
X141558516Y-125511990D01*
X141541639Y-125849123D01*
X141530460Y-126024640D01*
X141454826Y-126095092D01*
X141272945Y-126100764D01*
X141077032Y-126043630D01*
X140959126Y-125937696D01*
X140930083Y-125787486D01*
X140905235Y-125480902D01*
X140895679Y-125104763D01*
X140893229Y-124871892D01*
X140873290Y-124610781D01*
X140825032Y-124498591D01*
X140738656Y-124497424D01*
X140522367Y-124525981D01*
X140171768Y-124424450D01*
X139816134Y-124176804D01*
X139777120Y-124139370D01*
X139589385Y-123865424D01*
X139536832Y-123510456D01*
X139538001Y-123492155D01*
X140181837Y-123492155D01*
X140210884Y-123633657D01*
X140329752Y-123746626D01*
X140519278Y-123871678D01*
X140746854Y-123943202D01*
X140894106Y-123846910D01*
X140973819Y-123570475D01*
X140998779Y-123101569D01*
X140995693Y-122968473D01*
X140940918Y-122699150D01*
X140802129Y-122555000D01*
X140670329Y-122508332D01*
X140524280Y-122558932D01*
X140396000Y-122764956D01*
X140262152Y-123152214D01*
X140234216Y-123248293D01*
X140181837Y-123492155D01*
X139538001Y-123492155D01*
X139556731Y-123198827D01*
X139722155Y-122596431D01*
X140040980Y-122104887D01*
X140162076Y-121990343D01*
X140443797Y-121847040D01*
X140793890Y-121841013D01*
X141261523Y-121966695D01*
X141679630Y-122112803D01*
X141670438Y-122670677D01*
X141668875Y-122743915D01*
X141659268Y-123057498D01*
X141657675Y-123101569D01*
X141643515Y-123493249D01*
G37*
G36*
X138858652Y-124075465D02*
G01*
X139000159Y-124652459D01*
X139124253Y-125191169D01*
X139217104Y-125631093D01*
X139271453Y-125937753D01*
X139280039Y-126076673D01*
X139272916Y-126092427D01*
X139124587Y-126192746D01*
X138908244Y-126187586D01*
X138726209Y-126076904D01*
X138695964Y-126037041D01*
X138637029Y-125934056D01*
X138577194Y-125773089D01*
X138500061Y-125505812D01*
X138389230Y-125083900D01*
X138307012Y-124825086D01*
X138196316Y-124677301D01*
X138027591Y-124639661D01*
X137962583Y-124642981D01*
X137833059Y-124699785D01*
X137740727Y-124865226D01*
X137651963Y-125188426D01*
X137534282Y-125633760D01*
X137419235Y-125917586D01*
X137289710Y-126062453D01*
X137125758Y-126103035D01*
X137051677Y-126097895D01*
X136914373Y-126025891D01*
X136856268Y-125845317D01*
X136872652Y-125526138D01*
X136958816Y-125038323D01*
X137011941Y-124777996D01*
X137117512Y-124256057D01*
X137207191Y-123809616D01*
X137864404Y-123809616D01*
X137890153Y-123925663D01*
X138006699Y-124012500D01*
X138094258Y-123963700D01*
X138099273Y-123752402D01*
X138086482Y-123697981D01*
X137999319Y-123559003D01*
X137907186Y-123600625D01*
X137864404Y-123809616D01*
X137207191Y-123809616D01*
X137235712Y-123667630D01*
X137349536Y-123097196D01*
X137441992Y-122670472D01*
X137549529Y-122253244D01*
X137647489Y-121949354D01*
X137722515Y-121805072D01*
X137855559Y-121742808D01*
X138092585Y-121748787D01*
X138298864Y-121848070D01*
X138387037Y-122013283D01*
X138408859Y-122157395D01*
X138475098Y-122473814D01*
X138577628Y-122922951D01*
X138708222Y-123468828D01*
X138778541Y-123752402D01*
X138858652Y-124075465D01*
G37*
G36*
X153262014Y-123839965D02*
G01*
X153384402Y-124387630D01*
X153489759Y-124905006D01*
X153568530Y-125349259D01*
X153611159Y-125677558D01*
X153608090Y-125847069D01*
X153530723Y-125940542D01*
X153310802Y-125979708D01*
X153224459Y-125960239D01*
X153113846Y-125886921D01*
X153021427Y-125727366D01*
X152927218Y-125442040D01*
X152811236Y-124991408D01*
X152741485Y-124760552D01*
X152619051Y-124581947D01*
X152418965Y-124502946D01*
X152203635Y-124485723D01*
X152050893Y-124525287D01*
X151997909Y-124645678D01*
X151926386Y-124917617D01*
X151856263Y-125275065D01*
X151798165Y-125607647D01*
X151740394Y-125914094D01*
X151702957Y-126084235D01*
X151626643Y-126162780D01*
X151427217Y-126188762D01*
X151416239Y-126187156D01*
X151293769Y-126149759D01*
X151227651Y-126051666D01*
X151202292Y-125843498D01*
X151202099Y-125475875D01*
X151202797Y-125449950D01*
X151239591Y-125112150D01*
X151322348Y-124652174D01*
X151439024Y-124116834D01*
X151565876Y-123600562D01*
X152289095Y-123600562D01*
X152307854Y-123716177D01*
X152393622Y-123803447D01*
X152463121Y-123735331D01*
X152498149Y-123535961D01*
X152471131Y-123370083D01*
X152393622Y-123333077D01*
X152337093Y-123400462D01*
X152289095Y-123600562D01*
X151565876Y-123600562D01*
X151577576Y-123552943D01*
X151725961Y-123007312D01*
X151872136Y-122526752D01*
X152004058Y-122158077D01*
X152109683Y-121948097D01*
X152160975Y-121891853D01*
X152369188Y-121815447D01*
X152591624Y-121925326D01*
X152796541Y-122209414D01*
X152888228Y-122443553D01*
X153004371Y-122825094D01*
X153132152Y-123304842D01*
X153188239Y-123535961D01*
X153262014Y-123839965D01*
G37*
G36*
X147832785Y-122985688D02*
G01*
X147786973Y-123585495D01*
X147773825Y-123740032D01*
X147734169Y-124307149D01*
X147705621Y-124870409D01*
X147693647Y-125327795D01*
X147693495Y-125350916D01*
X147680807Y-125724038D01*
X147653012Y-126007766D01*
X147615824Y-126142287D01*
X147536076Y-126178847D01*
X147328376Y-126185840D01*
X147287248Y-126178060D01*
X147207089Y-126133966D01*
X147152358Y-126025616D01*
X147115256Y-125816832D01*
X147087988Y-125471434D01*
X147062758Y-124953241D01*
X147010494Y-123751184D01*
X146487860Y-124458402D01*
X146427532Y-124541210D01*
X146173211Y-124915852D01*
X145968723Y-125255986D01*
X145853729Y-125496674D01*
X145811422Y-125607966D01*
X145637757Y-125880672D01*
X145437389Y-125980494D01*
X145237257Y-125890233D01*
X145228236Y-125880841D01*
X145140332Y-125649897D01*
X145204222Y-125305644D01*
X145422412Y-124840732D01*
X145797410Y-124247810D01*
X145972238Y-123987437D01*
X146146037Y-123694328D01*
X146205569Y-123522523D01*
X146162062Y-123447379D01*
X145981434Y-123296210D01*
X145886729Y-123011051D01*
X145900194Y-122666839D01*
X146589358Y-122666839D01*
X146597287Y-122820036D01*
X146762897Y-122981229D01*
X146957450Y-123114406D01*
X147088889Y-123173962D01*
X147102860Y-123171889D01*
X147158377Y-123064028D01*
X147162955Y-122853706D01*
X147122233Y-122625879D01*
X147041852Y-122465505D01*
X146927973Y-122372718D01*
X146779956Y-122372244D01*
X146635916Y-122565446D01*
X146589358Y-122666839D01*
X145900194Y-122666839D01*
X145900619Y-122655985D01*
X146020125Y-122286352D01*
X146242268Y-121957491D01*
X146522097Y-121767193D01*
X146913263Y-121727437D01*
X147402884Y-121865693D01*
X147551831Y-121938037D01*
X147707707Y-122068885D01*
X147801155Y-122263220D01*
X147840181Y-122556875D01*
X147835061Y-122853706D01*
X147832785Y-122985688D01*
G37*
G36*
X157157751Y-121821759D02*
G01*
X157310865Y-121898978D01*
X157420863Y-122095774D01*
X157499715Y-122441931D01*
X157559390Y-122967233D01*
X157576135Y-123143937D01*
X157635118Y-123666714D01*
X157711392Y-124257614D01*
X157792728Y-124819572D01*
X157838159Y-125138195D01*
X157885560Y-125562787D01*
X157905628Y-125885817D01*
X157894082Y-126055092D01*
X157816292Y-126149576D01*
X157594295Y-126188762D01*
X157492616Y-126147841D01*
X157346786Y-125962645D01*
X157222265Y-125616716D01*
X157113922Y-125093975D01*
X157016627Y-124378344D01*
X156932952Y-123646657D01*
X156739991Y-124221554D01*
X156712008Y-124304112D01*
X156565057Y-124691504D01*
X156432900Y-124920614D01*
X156285846Y-125029887D01*
X156094207Y-125057768D01*
X155855168Y-124959843D01*
X155648720Y-124664967D01*
X155486743Y-124183088D01*
X155434798Y-124009607D01*
X155375719Y-123949783D01*
X155319913Y-124072579D01*
X155263929Y-124386766D01*
X155204318Y-124901116D01*
X155168314Y-125221117D01*
X155090485Y-125693046D01*
X154992757Y-125996826D01*
X154864654Y-126159363D01*
X154695701Y-126207562D01*
X154602283Y-126209528D01*
X154523846Y-126202213D01*
X154467626Y-126163575D01*
X154433634Y-126071547D01*
X154421878Y-125904061D01*
X154432367Y-125639050D01*
X154465111Y-125254446D01*
X154520118Y-124728183D01*
X154597398Y-124038193D01*
X154696960Y-123162408D01*
X154721331Y-122962920D01*
X154785227Y-122537029D01*
X154851678Y-122200455D01*
X154909691Y-122012614D01*
X154969290Y-121934562D01*
X155156693Y-121833133D01*
X155350892Y-121834234D01*
X155463968Y-121948097D01*
X155479135Y-122002002D01*
X155549777Y-122233683D01*
X155660421Y-122586344D01*
X155794800Y-123007873D01*
X156093123Y-123936990D01*
X156373049Y-123103913D01*
X156393702Y-123042607D01*
X156576859Y-122521351D01*
X156721868Y-122168280D01*
X156845662Y-121953319D01*
X156965171Y-121846397D01*
X157097326Y-121817439D01*
X157157751Y-121821759D01*
G37*
D10*
%TO.C,D5*%
X150600000Y-101275000D02*
X151150000Y-101275000D01*
X150750000Y-100675000D02*
X151550000Y-100675000D01*
X151150000Y-100175000D02*
X151150000Y-100675000D01*
X151150000Y-101275000D02*
X150750000Y-100675000D01*
X151150000Y-101275000D02*
X151150000Y-101675000D01*
X151550000Y-100675000D02*
X151150000Y-101275000D01*
X151700000Y-101275000D02*
X151150000Y-101275000D01*
%TO.C,D1*%
X132600000Y-84275000D02*
X133150000Y-84275000D01*
X132750000Y-83675000D02*
X133550000Y-83675000D01*
X133150000Y-83175000D02*
X133150000Y-83675000D01*
X133150000Y-84275000D02*
X132750000Y-83675000D01*
X133150000Y-84275000D02*
X133150000Y-84675000D01*
X133550000Y-83675000D02*
X133150000Y-84275000D01*
X133700000Y-84275000D02*
X133150000Y-84275000D01*
D13*
%TO.C,U1*%
X159050000Y-62725000D02*
X158050000Y-62725000D01*
X158050000Y-61725000D02*
X158050000Y-62725000D01*
X161850000Y-58925000D02*
X161850000Y-57925000D01*
X160850000Y-57925000D02*
X161850000Y-57925000D01*
X161450000Y-58425000D02*
G75*
G02*
X161250000Y-58425000I-100000J0D01*
G01*
X161250000Y-58425000D02*
G75*
G02*
X161450000Y-58425000I100000J0D01*
G01*
D10*
%TO.C,U3*%
X139175000Y-56112500D02*
X139175000Y-55437500D01*
X139175000Y-65112500D02*
X139175000Y-65787500D01*
X139850000Y-55437500D02*
X139175000Y-55437500D01*
X139850000Y-65787500D02*
X139175000Y-65787500D01*
X148850000Y-55437500D02*
X149525000Y-55437500D01*
X148850000Y-65787500D02*
X149525000Y-65787500D01*
X149525000Y-56052500D02*
X149525000Y-55437500D01*
X149525000Y-65112500D02*
X149525000Y-65787500D01*
D11*
X150210000Y-56072500D02*
X149870000Y-55602500D01*
X150550000Y-55602500D01*
X150210000Y-56072500D01*
G36*
X150210000Y-56072500D02*
G01*
X149870000Y-55602500D01*
X150550000Y-55602500D01*
X150210000Y-56072500D01*
G37*
%TO.C,R6*%
X123463641Y-71222500D02*
X123156359Y-71222500D01*
X123463641Y-71982500D02*
X123156359Y-71982500D01*
%TO.C,R3*%
X153506359Y-57832500D02*
X153813641Y-57832500D01*
X153506359Y-58592500D02*
X153813641Y-58592500D01*
%TO.C,R2*%
X153813641Y-59652500D02*
X153506359Y-59652500D01*
X153813641Y-58892500D02*
X153506359Y-58892500D01*
%TO.C,R8*%
X118463641Y-71222500D02*
X118156359Y-71222500D01*
X118463641Y-71982500D02*
X118156359Y-71982500D01*
D10*
%TO.C,D6*%
X168600000Y-101275000D02*
X169150000Y-101275000D01*
X168750000Y-100675000D02*
X169550000Y-100675000D01*
X169150000Y-100175000D02*
X169150000Y-100675000D01*
X169150000Y-101275000D02*
X168750000Y-100675000D01*
X169150000Y-101275000D02*
X169150000Y-101675000D01*
X169550000Y-100675000D02*
X169150000Y-101275000D01*
X169700000Y-101275000D02*
X169150000Y-101275000D01*
D11*
%TO.C,R4*%
X159286359Y-57362500D02*
X159593641Y-57362500D01*
X159286359Y-56602500D02*
X159593641Y-56602500D01*
%TO.C,C7*%
X120537836Y-72352500D02*
X120322164Y-72352500D01*
X120537836Y-73072500D02*
X120322164Y-73072500D01*
%TO.C,R5*%
X168373641Y-57362500D02*
X168066359Y-57362500D01*
X168373641Y-56602500D02*
X168066359Y-56602500D01*
D10*
%TO.C,D3*%
X168600000Y-84275000D02*
X169150000Y-84275000D01*
X168750000Y-83675000D02*
X169550000Y-83675000D01*
X169150000Y-83175000D02*
X169150000Y-83675000D01*
X169150000Y-84275000D02*
X168750000Y-83675000D01*
X169150000Y-84275000D02*
X169150000Y-84675000D01*
X169550000Y-83675000D02*
X169150000Y-84275000D01*
X169700000Y-84275000D02*
X169150000Y-84275000D01*
%TO.C,D4*%
X132600000Y-101275000D02*
X133150000Y-101275000D01*
X132750000Y-100675000D02*
X133550000Y-100675000D01*
X133150000Y-100175000D02*
X133150000Y-100675000D01*
X133150000Y-101275000D02*
X132750000Y-100675000D01*
X133150000Y-101275000D02*
X133150000Y-101675000D01*
X133550000Y-100675000D02*
X133150000Y-101275000D01*
X133700000Y-101275000D02*
X133150000Y-101275000D01*
D12*
%TO.C,G\u002A\u002A\u002A*%
G36*
X122083932Y-59861970D02*
G01*
X122250569Y-59943329D01*
X122444932Y-60082309D01*
X122675152Y-60284914D01*
X122949360Y-60557147D01*
X123275687Y-60905013D01*
X123662264Y-61334514D01*
X123825375Y-61517567D01*
X124055749Y-61773782D01*
X124254042Y-61991514D01*
X124409907Y-62159530D01*
X124512995Y-62266597D01*
X124552959Y-62301481D01*
X124548556Y-62268177D01*
X124514991Y-62148575D01*
X124456119Y-61963723D01*
X124378883Y-61736167D01*
X124315801Y-61548724D01*
X124250821Y-61323097D01*
X124226879Y-61174684D01*
X124240840Y-61088784D01*
X124318516Y-61013327D01*
X124444787Y-60995862D01*
X124559073Y-61062557D01*
X124561482Y-61066112D01*
X124596836Y-61146220D01*
X124660272Y-61310078D01*
X124745164Y-61538891D01*
X124844885Y-61813862D01*
X124952809Y-62116196D01*
X125062309Y-62427096D01*
X125166758Y-62727767D01*
X125259532Y-62999413D01*
X125334003Y-63223237D01*
X125383545Y-63380443D01*
X125401531Y-63452236D01*
X125383712Y-63488561D01*
X125314192Y-63570237D01*
X125265650Y-63613131D01*
X125163103Y-63650465D01*
X125060493Y-63595256D01*
X124939670Y-63441256D01*
X124884689Y-63365884D01*
X124755677Y-63204294D01*
X124579229Y-62992817D01*
X124371110Y-62750268D01*
X124147084Y-62495459D01*
X124015660Y-62348240D01*
X123814350Y-62126190D01*
X123668928Y-61973549D01*
X123568370Y-61880674D01*
X123501655Y-61837918D01*
X123457761Y-61835638D01*
X123425664Y-61864187D01*
X123410421Y-61885717D01*
X123385989Y-61956298D01*
X123450659Y-61998631D01*
X123453789Y-61999978D01*
X123521122Y-62071276D01*
X123612043Y-62217173D01*
X123712778Y-62409648D01*
X123809556Y-62620681D01*
X123888603Y-62822253D01*
X123936147Y-62986344D01*
X123939702Y-63007541D01*
X123917075Y-63156940D01*
X123817902Y-63243835D01*
X123665382Y-63245982D01*
X123595398Y-63206639D01*
X123473047Y-63093792D01*
X123348273Y-62940774D01*
X123261647Y-62823858D01*
X123100719Y-62646153D01*
X122975033Y-62570980D01*
X122882769Y-62596996D01*
X122851834Y-62620477D01*
X122704392Y-62654584D01*
X122506441Y-62628861D01*
X122289059Y-62545979D01*
X122237008Y-62520869D01*
X122078445Y-62459413D01*
X121961865Y-62434819D01*
X121956854Y-62434605D01*
X121853264Y-62399611D01*
X121695179Y-62316389D01*
X121514712Y-62201684D01*
X121417281Y-62135932D01*
X121263889Y-62044965D01*
X121167919Y-62013902D01*
X121110466Y-62034944D01*
X121109971Y-62035437D01*
X120980022Y-62094263D01*
X120815164Y-62072637D01*
X120640647Y-61983443D01*
X120481721Y-61839565D01*
X120363636Y-61653886D01*
X120300895Y-61531083D01*
X120221567Y-61453909D01*
X120110748Y-61434382D01*
X120101996Y-61434437D01*
X119987856Y-61458686D01*
X119954704Y-61536927D01*
X119941766Y-61601021D01*
X119866868Y-61714373D01*
X119758315Y-61793963D01*
X119654504Y-61805448D01*
X119625438Y-61786752D01*
X119537777Y-61689795D01*
X119444009Y-61547126D01*
X119382494Y-61450344D01*
X119244531Y-61320351D01*
X119070903Y-61277832D01*
X118835117Y-61312580D01*
X118778022Y-61326195D01*
X118596246Y-61347254D01*
X118484992Y-61307385D01*
X118422661Y-61200730D01*
X118411596Y-61129422D01*
X118462420Y-61021043D01*
X118610867Y-60939328D01*
X118862985Y-60879871D01*
X119151215Y-60857988D01*
X119384184Y-60904366D01*
X119574815Y-61025831D01*
X119581953Y-61032180D01*
X119676536Y-61080299D01*
X119789698Y-61044395D01*
X119852980Y-61018732D01*
X119950064Y-61004805D01*
X120091540Y-61009650D01*
X120298960Y-61034203D01*
X120593873Y-61079403D01*
X120654095Y-61095645D01*
X120816807Y-61172372D01*
X120981506Y-61282992D01*
X121202400Y-61459661D01*
X121057543Y-61266387D01*
X121035172Y-61235923D01*
X120918256Y-61061163D01*
X120825612Y-60900765D01*
X120777971Y-60794554D01*
X120770982Y-60703511D01*
X120822202Y-60608970D01*
X120889062Y-60532479D01*
X120988539Y-60498876D01*
X121095318Y-60566464D01*
X121219435Y-60738515D01*
X121265133Y-60811593D01*
X121363498Y-60932834D01*
X121482028Y-61002930D01*
X121665861Y-61053755D01*
X121687747Y-61058793D01*
X121910058Y-61134394D01*
X122026987Y-61229486D01*
X122036809Y-61341447D01*
X121937804Y-61467656D01*
X121793904Y-61591434D01*
X121949224Y-61804702D01*
X121992230Y-61858227D01*
X122141504Y-61997834D01*
X122289985Y-62086322D01*
X122475426Y-62154673D01*
X122293666Y-61967144D01*
X122270990Y-61943095D01*
X122155283Y-61774170D01*
X122146046Y-61635677D01*
X122243167Y-61526647D01*
X122252581Y-61521305D01*
X122316063Y-61512963D01*
X122407109Y-61550766D01*
X122543592Y-61644643D01*
X122743385Y-61804523D01*
X122870391Y-61907129D01*
X123042093Y-62032114D01*
X123152127Y-62087710D01*
X123211038Y-62080131D01*
X123231975Y-62022116D01*
X123155458Y-61961646D01*
X123111069Y-61933954D01*
X123031842Y-61822792D01*
X123033709Y-61698999D01*
X123120533Y-61602312D01*
X123206435Y-61573033D01*
X123304540Y-61581896D01*
X123315700Y-61585246D01*
X123289782Y-61541332D01*
X123207338Y-61440371D01*
X123082591Y-61297918D01*
X122929768Y-61129528D01*
X122763091Y-60950755D01*
X122596787Y-60777154D01*
X122445080Y-60624281D01*
X122322194Y-60507689D01*
X122299758Y-60487564D01*
X122152324Y-60362411D01*
X122045510Y-60298041D01*
X121944388Y-60279661D01*
X121814028Y-60292479D01*
X121798748Y-60294629D01*
X121602767Y-60289262D01*
X121489317Y-60225151D01*
X121464126Y-60122934D01*
X121532921Y-60003252D01*
X121701430Y-59886742D01*
X121801313Y-59848105D01*
X121936890Y-59832230D01*
X122083932Y-59861970D01*
G37*
G36*
X119538152Y-62095617D02*
G01*
X119666875Y-62132910D01*
X119924216Y-62219891D01*
X120257346Y-62341700D01*
X120651262Y-62492168D01*
X121090960Y-62665124D01*
X121561437Y-62854400D01*
X122047689Y-63053825D01*
X122534713Y-63257230D01*
X123007504Y-63458444D01*
X123451061Y-63651300D01*
X123850378Y-63829626D01*
X124190452Y-63987253D01*
X124456280Y-64118012D01*
X124481543Y-64132172D01*
X124590508Y-64241312D01*
X124610667Y-64364973D01*
X124535464Y-64473706D01*
X124471552Y-64518474D01*
X124422662Y-64546854D01*
X124420326Y-64546457D01*
X124348789Y-64519107D01*
X124192463Y-64453295D01*
X123965957Y-64355417D01*
X123683882Y-64231867D01*
X123360845Y-64089038D01*
X123011457Y-63933327D01*
X122650328Y-63771126D01*
X122536470Y-63720277D01*
X122191421Y-63570636D01*
X121803728Y-63407701D01*
X121391489Y-63238614D01*
X120972805Y-63070518D01*
X120565772Y-62910555D01*
X120188492Y-62765867D01*
X119859063Y-62643596D01*
X119595583Y-62550884D01*
X119416153Y-62494873D01*
X119297954Y-62451761D01*
X119168550Y-62353569D01*
X119130930Y-62236081D01*
X119194420Y-62115266D01*
X119199282Y-62110485D01*
X119270481Y-62064953D01*
X119370823Y-62060718D01*
X119538152Y-62095617D01*
G37*
D10*
%TO.C,D2*%
X150600000Y-84275000D02*
X151150000Y-84275000D01*
X150750000Y-83675000D02*
X151550000Y-83675000D01*
X151150000Y-83175000D02*
X151150000Y-83675000D01*
X151150000Y-84275000D02*
X150750000Y-83675000D01*
X151150000Y-84275000D02*
X151150000Y-84675000D01*
X151550000Y-83675000D02*
X151150000Y-84275000D01*
X151700000Y-84275000D02*
X151150000Y-84275000D01*
D11*
%TO.C,C4*%
X152010000Y-67120336D02*
X152010000Y-66904664D01*
X151290000Y-67120336D02*
X151290000Y-66904664D01*
D10*
%TO.C,D9*%
X168600000Y-118275000D02*
X169150000Y-118275000D01*
X168750000Y-117675000D02*
X169550000Y-117675000D01*
X169150000Y-117175000D02*
X169150000Y-117675000D01*
X169150000Y-118275000D02*
X168750000Y-117675000D01*
X169150000Y-118275000D02*
X169150000Y-118675000D01*
X169550000Y-117675000D02*
X169150000Y-118275000D01*
X169700000Y-118275000D02*
X169150000Y-118275000D01*
D11*
%TO.C,C6*%
X149610000Y-70200336D02*
X149610000Y-69984664D01*
X148890000Y-70200336D02*
X148890000Y-69984664D01*
%TO.C,C9*%
X125537836Y-72352500D02*
X125322164Y-72352500D01*
X125537836Y-73072500D02*
X125322164Y-73072500D01*
D10*
%TO.C,D8*%
X150600000Y-118275000D02*
X151150000Y-118275000D01*
X150750000Y-117675000D02*
X151550000Y-117675000D01*
X151150000Y-117175000D02*
X151150000Y-117675000D01*
X151150000Y-118275000D02*
X150750000Y-117675000D01*
X151150000Y-118275000D02*
X151150000Y-118675000D01*
X151550000Y-117675000D02*
X151150000Y-118275000D01*
X151700000Y-118275000D02*
X151150000Y-118275000D01*
D11*
%TO.C,R9*%
X125563641Y-71222500D02*
X125256359Y-71222500D01*
X125563641Y-71982500D02*
X125256359Y-71982500D01*
%TO.C,R1*%
X140003641Y-51580000D02*
X139696359Y-51580000D01*
X140003641Y-50820000D02*
X139696359Y-50820000D01*
%TO.C,R10*%
X120256359Y-71222500D02*
X120563641Y-71222500D01*
X120256359Y-71982500D02*
X120563641Y-71982500D01*
D13*
%TO.C,Y1*%
X148400000Y-68762500D02*
X148400000Y-72612500D01*
X148400000Y-68762500D02*
X145250000Y-68762500D01*
X148600000Y-68762500D02*
G75*
G02*
X148200000Y-68762500I-200000J0D01*
G01*
X148200000Y-68762500D02*
G75*
G02*
X148600000Y-68762500I200000J0D01*
G01*
D11*
%TO.C,C5*%
X146447836Y-73412500D02*
X146232164Y-73412500D01*
X146447836Y-74132500D02*
X146232164Y-74132500D01*
%TO.C,R7*%
X135986359Y-58632500D02*
X136293641Y-58632500D01*
X135986359Y-59392500D02*
X136293641Y-59392500D01*
D10*
%TO.C,D7*%
X132600000Y-118275000D02*
X133150000Y-118275000D01*
X132750000Y-117675000D02*
X133550000Y-117675000D01*
X133150000Y-117175000D02*
X133150000Y-117675000D01*
X133150000Y-118275000D02*
X132750000Y-117675000D01*
X133150000Y-118275000D02*
X133150000Y-118675000D01*
X133550000Y-117675000D02*
X133150000Y-118275000D01*
X133700000Y-118275000D02*
X133150000Y-118275000D01*
%TD*%
%LPC*%
D14*
%TO.C,H4*%
X151150000Y-109200000D03*
%TD*%
%TO.C,H3*%
X133150000Y-109200000D03*
%TD*%
%TO.C,H2*%
X151150000Y-92200000D03*
%TD*%
%TO.C,H1*%
X133150000Y-92200000D03*
%TD*%
D15*
%TO.C,R13*%
X165100000Y-68332500D03*
X164080000Y-68332500D03*
%TD*%
%TO.C,R12*%
X165100000Y-65792500D03*
X164080000Y-65792500D03*
%TD*%
D16*
%TO.C,R11*%
X135610000Y-56612500D03*
X136630000Y-56612500D03*
%TD*%
D17*
%TO.C,C10*%
X147250000Y-52432500D03*
X147250000Y-53392500D03*
%TD*%
%TO.C,C8*%
X141010000Y-53382500D03*
X141010000Y-52422500D03*
%TD*%
D18*
%TO.C,C3*%
X152540000Y-56552500D03*
X151580000Y-56552500D03*
%TD*%
D17*
%TO.C,C2*%
X148350000Y-53382500D03*
X148350000Y-52422500D03*
%TD*%
D18*
%TO.C,C1*%
X152510000Y-61612500D03*
X151550000Y-61612500D03*
%TD*%
D14*
%TO.C,S1*%
X129150000Y-79900000D03*
X124150000Y-77800000D03*
D19*
X132650000Y-79900000D03*
D20*
X129650000Y-83700000D03*
D21*
X124150000Y-83700000D03*
D19*
X120650000Y-77700000D03*
D20*
X118650000Y-83700000D03*
%TD*%
D14*
%TO.C,S3*%
X165150000Y-79900000D03*
X160150000Y-77800000D03*
D19*
X168650000Y-79900000D03*
D20*
X165650000Y-83700000D03*
D21*
X160150000Y-83700000D03*
D19*
X156650000Y-77700000D03*
D20*
X154650000Y-83700000D03*
%TD*%
D14*
%TO.C,S2*%
X147150000Y-79900000D03*
X142150000Y-77800000D03*
D19*
X150650000Y-79900000D03*
D20*
X147650000Y-83700000D03*
D21*
X142150000Y-83700000D03*
D19*
X138650000Y-77700000D03*
D20*
X136650000Y-83700000D03*
%TD*%
D14*
%TO.C,S8*%
X147150000Y-113900000D03*
X142150000Y-111800000D03*
D19*
X150650000Y-113900000D03*
D20*
X147650000Y-117700000D03*
D21*
X142150000Y-117700000D03*
D19*
X138650000Y-111700000D03*
D20*
X136650000Y-117700000D03*
%TD*%
D14*
%TO.C,S9*%
X165150000Y-113900000D03*
X160150000Y-111800000D03*
D19*
X168650000Y-113900000D03*
D20*
X165650000Y-117700000D03*
D21*
X160150000Y-117700000D03*
D19*
X156650000Y-111700000D03*
D20*
X154650000Y-117700000D03*
%TD*%
D14*
%TO.C,S5*%
X147150000Y-96900000D03*
X142150000Y-94800000D03*
D19*
X150650000Y-96900000D03*
D20*
X147650000Y-100700000D03*
D21*
X142150000Y-100700000D03*
D19*
X138650000Y-94700000D03*
D20*
X136650000Y-100700000D03*
%TD*%
D14*
%TO.C,S4*%
X129150000Y-96900000D03*
X124150000Y-94800000D03*
D19*
X132650000Y-96900000D03*
D20*
X129650000Y-100700000D03*
D21*
X124150000Y-100700000D03*
D19*
X120650000Y-94700000D03*
D20*
X118650000Y-100700000D03*
%TD*%
D14*
%TO.C,S6*%
X165150000Y-96900000D03*
X160150000Y-94800000D03*
D19*
X168650000Y-96900000D03*
D20*
X165650000Y-100700000D03*
D21*
X160150000Y-100700000D03*
D19*
X156650000Y-94700000D03*
D20*
X154650000Y-100700000D03*
%TD*%
D14*
%TO.C,S7*%
X129150000Y-113900000D03*
X124150000Y-111800000D03*
D19*
X132650000Y-113900000D03*
D20*
X129650000Y-117700000D03*
D21*
X124150000Y-117700000D03*
D19*
X120650000Y-111700000D03*
D20*
X118650000Y-117700000D03*
%TD*%
D22*
%TO.C,SW2*%
X127500000Y-62012500D03*
X116300000Y-62012500D03*
D23*
X124400000Y-55012500D03*
X119400000Y-55012500D03*
X121900000Y-69512500D03*
X124400000Y-69512500D03*
X119400000Y-69512500D03*
%TD*%
D24*
%TO.C,J1*%
X160940000Y-53742500D03*
X166720000Y-53742500D03*
D25*
X160580000Y-55187500D03*
X161380000Y-55187500D03*
D26*
X162580000Y-55187500D03*
X163580000Y-55187500D03*
X164080000Y-55187500D03*
X165080000Y-55187500D03*
D25*
X166280000Y-55187500D03*
X167080000Y-55187500D03*
X167080000Y-55187500D03*
X166280000Y-55187500D03*
D26*
X165580000Y-55187500D03*
X164580000Y-55187500D03*
X163080000Y-55187500D03*
X162080000Y-55187500D03*
D25*
X161380000Y-55187500D03*
X160580000Y-55187500D03*
D27*
X159510000Y-54272500D03*
D28*
X159510000Y-50092500D03*
D27*
X168150000Y-54272500D03*
D28*
X168150000Y-50092500D03*
%TD*%
D29*
%TO.C,J2*%
X167747500Y-68332500D03*
X167747500Y-65792500D03*
X167747500Y-63252500D03*
D30*
X167747500Y-60712500D03*
%TD*%
D31*
%TO.C,D5*%
X151150000Y-102575000D03*
X151150000Y-99275000D03*
%TD*%
%TO.C,D1*%
X133150000Y-85575000D03*
X133150000Y-82275000D03*
%TD*%
D32*
%TO.C,U1*%
X162700000Y-58425000D03*
X162700000Y-59695000D03*
X162700000Y-60965000D03*
X162700000Y-62235000D03*
X157200000Y-62235000D03*
X157200000Y-60965000D03*
X157200000Y-59695000D03*
X157200000Y-58425000D03*
%TD*%
D33*
%TO.C,U3*%
X150050000Y-56612500D03*
X150050000Y-57412500D03*
X150050000Y-58212500D03*
X150050000Y-59012500D03*
X150050000Y-59812500D03*
X150050000Y-60612500D03*
X150050000Y-61412500D03*
X150050000Y-62212500D03*
X150050000Y-63012500D03*
X150050000Y-63812500D03*
X150050000Y-64612500D03*
D34*
X148350000Y-66312500D03*
X147550000Y-66312500D03*
X146750000Y-66312500D03*
X145950000Y-66312500D03*
X145150000Y-66312500D03*
X144350000Y-66312500D03*
X143550000Y-66312500D03*
X142750000Y-66312500D03*
X141950000Y-66312500D03*
X141150000Y-66312500D03*
X140350000Y-66312500D03*
D33*
X138650000Y-64612500D03*
X138650000Y-63812500D03*
X138650000Y-63012500D03*
X138650000Y-62212500D03*
X138650000Y-61412500D03*
X138650000Y-60612500D03*
X138650000Y-59812500D03*
X138650000Y-59012500D03*
X138650000Y-58212500D03*
X138650000Y-57412500D03*
X138650000Y-56612500D03*
D34*
X140350000Y-54912500D03*
X141150000Y-54912500D03*
X141950000Y-54912500D03*
X142750000Y-54912500D03*
X143550000Y-54912500D03*
X144350000Y-54912500D03*
X145150000Y-54912500D03*
X145950000Y-54912500D03*
X146750000Y-54912500D03*
X147550000Y-54912500D03*
X148350000Y-54912500D03*
%TD*%
D15*
%TO.C,R6*%
X122800000Y-71602500D03*
X123820000Y-71602500D03*
%TD*%
D16*
%TO.C,R3*%
X154170000Y-58212500D03*
X153150000Y-58212500D03*
%TD*%
D15*
%TO.C,R2*%
X154170000Y-59272500D03*
X153150000Y-59272500D03*
%TD*%
%TO.C,R8*%
X117800000Y-71602500D03*
X118820000Y-71602500D03*
%TD*%
D31*
%TO.C,D6*%
X169150000Y-102575000D03*
X169150000Y-99275000D03*
%TD*%
D16*
%TO.C,R4*%
X159950000Y-56982500D03*
X158930000Y-56982500D03*
%TD*%
D18*
%TO.C,C7*%
X119950000Y-72712500D03*
X120910000Y-72712500D03*
%TD*%
D15*
%TO.C,R5*%
X167710000Y-56982500D03*
X168730000Y-56982500D03*
%TD*%
D31*
%TO.C,D3*%
X169150000Y-85575000D03*
X169150000Y-82275000D03*
%TD*%
%TO.C,D4*%
X133150000Y-102575000D03*
X133150000Y-99275000D03*
%TD*%
%TO.C,D2*%
X151150000Y-85575000D03*
X151150000Y-82275000D03*
%TD*%
D35*
%TO.C,C4*%
X151650000Y-67492500D03*
X151650000Y-66532500D03*
%TD*%
D31*
%TO.C,D9*%
X169150000Y-119575000D03*
X169150000Y-116275000D03*
%TD*%
D35*
%TO.C,C6*%
X149250000Y-69612500D03*
X149250000Y-70572500D03*
%TD*%
D18*
%TO.C,C9*%
X124950000Y-72712500D03*
X125910000Y-72712500D03*
%TD*%
D31*
%TO.C,D8*%
X151150000Y-119575000D03*
X151150000Y-116275000D03*
%TD*%
D15*
%TO.C,R9*%
X124900000Y-71602500D03*
X125920000Y-71602500D03*
%TD*%
%TO.C,R1*%
X140360000Y-51200000D03*
X139340000Y-51200000D03*
%TD*%
D16*
%TO.C,R10*%
X120920000Y-71602500D03*
X119900000Y-71602500D03*
%TD*%
D36*
%TO.C,Y1*%
X147550000Y-69712500D03*
X147550000Y-71912500D03*
X145850000Y-71912500D03*
X145850000Y-69712500D03*
%TD*%
D18*
%TO.C,C5*%
X146820000Y-73772500D03*
X145860000Y-73772500D03*
%TD*%
D16*
%TO.C,R7*%
X136650000Y-59012500D03*
X135630000Y-59012500D03*
%TD*%
D31*
%TO.C,D7*%
X133150000Y-119575000D03*
X133150000Y-116275000D03*
%TD*%
%LPD*%
M02*
