M48
; DRILL file {KiCad 8.0.3} date 2024-08-18T23:13:00-0400
; FORMAT={-:-/ absolute / inch / decimal}
; #@! TF.CreationDate,2024-08-18T23:13:00-04:00
; #@! TF.GenerationSoftware,Kicad,Pcbnew,8.0.3
; #@! TF.FileFunction,Plated,1,2,PTH
FMAT,2
INCH
; #@! TA.AperFunction,Plated,PTH,ViaDrill
T1C0.0118
; #@! TA.AperFunction,Plated,PTH,ComponentDrill
T2C0.0236
; #@! TA.AperFunction,Plated,PTH,ComponentDrill
T3C0.0394
; #@! TA.AperFunction,Plated,PTH,ComponentDrill
T4C0.0787
; #@! TA.AperFunction,Plated,PTH,ComponentDrill
T5C0.1201
; #@! TA.AperFunction,Plated,PTH,ComponentDrill
T6C0.1299
%
G90
G05
T1
X4.5531Y-2.7598
X4.7972Y-2.6181
X4.7996Y-2.8194
X4.8425Y-2.8687
X4.9429Y-2.0157
X4.9429Y-2.0669
X5.0138Y-3.4055
X5.1437Y-3.406
X5.1437Y-3.4764
X5.2264Y-2.1969
X5.2264Y-2.4803
X5.2264Y-2.7598
X5.3878Y-2.4803
X5.5886Y-2.6777
X5.5886Y-2.7717
X5.6201Y-2.7249
X5.6516Y-2.6777
X5.6516Y-2.7717
X5.6841Y-2.2367
X5.7114Y-2.6832
X5.7146Y-2.5472
X5.8031Y-2.6832
X5.8091Y-2.5472
X5.8499Y-2.3552
X5.8543Y-3.4413
X5.8551Y-3.3575
X5.9508Y-3.4409
X5.9705Y-2.3863
X5.9705Y-2.5792
X6.1988Y-2.0472
X6.1988Y-2.1934
X6.1988Y-2.2446
X6.1988Y-2.7323
X6.2697Y-3.5591
X6.3366Y-3.6102
X6.4035Y-3.5595
X6.4598Y-2.6347
X6.498Y-2.5354
X6.498Y-2.7441
T3
X4.7008Y-2.1658
X4.7008Y-2.7367
X4.7992Y-2.7367
X4.8976Y-2.1658
X4.8976Y-2.7367
X6.6042Y-2.3903
X6.6042Y-2.4903
X6.6042Y-2.5903
X6.6042Y-2.6903
T5
X4.8878Y-3.063
X4.8878Y-3.7323
X4.8878Y-4.4016
X5.0846Y-3.1457
X5.0846Y-3.815
X5.0846Y-4.4843
X5.5965Y-3.063
X5.5965Y-3.7323
X5.5965Y-4.4016
X5.7933Y-3.1457
X5.7933Y-3.815
X5.7933Y-4.4843
X6.3051Y-3.063
X6.3051Y-3.7323
X6.3051Y-4.4016
X6.502Y-3.1457
X6.502Y-3.815
X6.502Y-4.4843
T6
X5.2421Y-3.6299
X5.2421Y-4.2992
X5.9508Y-3.6299
X5.9508Y-4.2992
T2
G00X6.2799Y-1.9603
M15
G01X6.2799Y-1.984
M16
G05
G00X6.2799Y-2.1151
M15
G01X6.2799Y-2.1584
M16
G05
G00X6.6201Y-1.9603
M15
G01X6.6201Y-1.984
M16
G05
G00X6.6201Y-2.1151
M15
G01X6.6201Y-2.1584
M16
G05
T4
G00X4.5787Y-2.4257
M15
G01X4.5787Y-2.4572
M16
G05
G00X5.0197Y-2.4257
M15
G01X5.0197Y-2.4572
M16
G05
M30
