M48
; DRILL file {KiCad 8.0.3} date 2024-08-18T23:13:00-0400
; FORMAT={-:-/ absolute / inch / decimal}
; #@! TF.CreationDate,2024-08-18T23:13:00-04:00
; #@! TF.GenerationSoftware,Kicad,Pcbnew,8.0.3
; #@! TF.FileFunction,NonPlated,1,2,NPTH
FMAT,2
INCH
; #@! TA.AperFunction,NonPlated,NPTH,ComponentDrill
T1C0.0256
; #@! TA.AperFunction,NonPlated,NPTH,ComponentDrill
T2C0.0748
; #@! TA.AperFunction,NonPlated,NPTH,ComponentDrill
T3C0.1358
%
G90
G05
T1
X6.3362Y-2.1158
X6.5638Y-2.1158
T2
X4.6713Y-3.2953
X4.6713Y-3.9646
X4.6713Y-4.6339
X5.1043Y-3.2953
X5.1043Y-3.9646
X5.1043Y-4.6339
X5.3799Y-3.2953
X5.3799Y-3.9646
X5.3799Y-4.6339
X5.813Y-3.2953
X5.813Y-3.9646
X5.813Y-4.6339
X6.0886Y-3.2953
X6.0886Y-3.9646
X6.0886Y-4.6339
X6.5217Y-3.2953
X6.5217Y-3.9646
X6.5217Y-4.6339
T3
X4.8878Y-3.2953
X4.8878Y-3.9646
X4.8878Y-4.6339
X5.5965Y-3.2953
X5.5965Y-3.9646
X5.5965Y-4.6339
X6.3051Y-3.2953
X6.3051Y-3.9646
X6.3051Y-4.6339
M30
