%TF.GenerationSoftware,KiCad,Pcbnew,8.0.3*%
%TF.CreationDate,2024-08-18T23:13:00-04:00*%
%TF.ProjectId,MACROPAD,4d414352-4f50-4414-942e-6b696361645f,rev?*%
%TF.SameCoordinates,Original*%
%TF.FileFunction,Paste,Bot*%
%TF.FilePolarity,Positive*%
%FSLAX46Y46*%
G04 Gerber Fmt 4.6, Leading zero omitted, Abs format (unit mm)*
G04 Created by KiCad (PCBNEW 8.0.3) date 2024-08-18 23:13:00*
%MOMM*%
%LPD*%
G01*
G04 APERTURE LIST*
G04 Aperture macros list*
%AMRoundRect*
0 Rectangle with rounded corners*
0 $1 Rounding radius*
0 $2 $3 $4 $5 $6 $7 $8 $9 X,Y pos of 4 corners*
0 Add a 4 corners polygon primitive as box body*
4,1,4,$2,$3,$4,$5,$6,$7,$8,$9,$2,$3,0*
0 Add four circle primitives for the rounded corners*
1,1,$1+$1,$2,$3*
1,1,$1+$1,$4,$5*
1,1,$1+$1,$6,$7*
1,1,$1+$1,$8,$9*
0 Add four rect primitives between the rounded corners*
20,1,$1+$1,$2,$3,$4,$5,0*
20,1,$1+$1,$4,$5,$6,$7,0*
20,1,$1+$1,$6,$7,$8,$9,0*
20,1,$1+$1,$8,$9,$2,$3,0*%
G04 Aperture macros list end*
%ADD10RoundRect,0.135000X-0.135000X-0.185000X0.135000X-0.185000X0.135000X0.185000X-0.135000X0.185000X0*%
%ADD11RoundRect,0.135000X0.135000X0.185000X-0.135000X0.185000X-0.135000X-0.185000X0.135000X-0.185000X0*%
%ADD12RoundRect,0.140000X0.170000X-0.140000X0.170000X0.140000X-0.170000X0.140000X-0.170000X-0.140000X0*%
%ADD13RoundRect,0.140000X-0.140000X-0.170000X0.140000X-0.170000X0.140000X0.170000X-0.140000X0.170000X0*%
%ADD14RoundRect,0.250000X-1.025000X-1.000000X1.025000X-1.000000X1.025000X1.000000X-1.025000X1.000000X0*%
%ADD15R,0.600000X1.450000*%
%ADD16R,0.300000X1.450000*%
%ADD17RoundRect,0.225000X0.375000X-0.225000X0.375000X0.225000X-0.375000X0.225000X-0.375000X-0.225000X0*%
%ADD18RoundRect,0.150000X0.500000X0.150000X-0.500000X0.150000X-0.500000X-0.150000X0.500000X-0.150000X0*%
%ADD19R,1.500000X0.550000*%
%ADD20R,0.550000X1.500000*%
%ADD21RoundRect,0.140000X-0.170000X0.140000X-0.170000X-0.140000X0.170000X-0.140000X0.170000X0.140000X0*%
%ADD22R,1.200000X1.400000*%
G04 APERTURE END LIST*
D10*
%TO.C,R13*%
X165100000Y-68332500D03*
X164080000Y-68332500D03*
%TD*%
%TO.C,R12*%
X165100000Y-65792500D03*
X164080000Y-65792500D03*
%TD*%
D11*
%TO.C,R11*%
X135610000Y-56612500D03*
X136630000Y-56612500D03*
%TD*%
D12*
%TO.C,C10*%
X147250000Y-52432500D03*
X147250000Y-53392500D03*
%TD*%
%TO.C,C8*%
X141010000Y-53382500D03*
X141010000Y-52422500D03*
%TD*%
D13*
%TO.C,C3*%
X152540000Y-56552500D03*
X151580000Y-56552500D03*
%TD*%
D12*
%TO.C,C2*%
X148350000Y-53382500D03*
X148350000Y-52422500D03*
%TD*%
D13*
%TO.C,C1*%
X152510000Y-61612500D03*
X151550000Y-61612500D03*
%TD*%
D14*
%TO.C,S1*%
X132650000Y-79900000D03*
X120650000Y-77700000D03*
%TD*%
%TO.C,S3*%
X168650000Y-79900000D03*
X156650000Y-77700000D03*
%TD*%
%TO.C,S2*%
X150650000Y-79900000D03*
X138650000Y-77700000D03*
%TD*%
%TO.C,S8*%
X150650000Y-113900000D03*
X138650000Y-111700000D03*
%TD*%
%TO.C,S9*%
X168650000Y-113900000D03*
X156650000Y-111700000D03*
%TD*%
%TO.C,S5*%
X150650000Y-96900000D03*
X138650000Y-94700000D03*
%TD*%
%TO.C,S4*%
X132650000Y-96900000D03*
X120650000Y-94700000D03*
%TD*%
%TO.C,S6*%
X168650000Y-96900000D03*
X156650000Y-94700000D03*
%TD*%
%TO.C,S7*%
X132650000Y-113900000D03*
X120650000Y-111700000D03*
%TD*%
D15*
%TO.C,J1*%
X160580000Y-55187500D03*
X161380000Y-55187500D03*
D16*
X162580000Y-55187500D03*
X163580000Y-55187500D03*
X164080000Y-55187500D03*
X165080000Y-55187500D03*
D15*
X166280000Y-55187500D03*
X167080000Y-55187500D03*
X167080000Y-55187500D03*
X166280000Y-55187500D03*
D16*
X165580000Y-55187500D03*
X164580000Y-55187500D03*
X163080000Y-55187500D03*
X162080000Y-55187500D03*
D15*
X161380000Y-55187500D03*
X160580000Y-55187500D03*
%TD*%
D17*
%TO.C,D5*%
X151150000Y-102575000D03*
X151150000Y-99275000D03*
%TD*%
%TO.C,D1*%
X133150000Y-85575000D03*
X133150000Y-82275000D03*
%TD*%
D18*
%TO.C,U1*%
X162700000Y-58425000D03*
X162700000Y-59695000D03*
X162700000Y-60965000D03*
X162700000Y-62235000D03*
X157200000Y-62235000D03*
X157200000Y-60965000D03*
X157200000Y-59695000D03*
X157200000Y-58425000D03*
%TD*%
D19*
%TO.C,U3*%
X150050000Y-56612500D03*
X150050000Y-57412500D03*
X150050000Y-58212500D03*
X150050000Y-59012500D03*
X150050000Y-59812500D03*
X150050000Y-60612500D03*
X150050000Y-61412500D03*
X150050000Y-62212500D03*
X150050000Y-63012500D03*
X150050000Y-63812500D03*
X150050000Y-64612500D03*
D20*
X148350000Y-66312500D03*
X147550000Y-66312500D03*
X146750000Y-66312500D03*
X145950000Y-66312500D03*
X145150000Y-66312500D03*
X144350000Y-66312500D03*
X143550000Y-66312500D03*
X142750000Y-66312500D03*
X141950000Y-66312500D03*
X141150000Y-66312500D03*
X140350000Y-66312500D03*
D19*
X138650000Y-64612500D03*
X138650000Y-63812500D03*
X138650000Y-63012500D03*
X138650000Y-62212500D03*
X138650000Y-61412500D03*
X138650000Y-60612500D03*
X138650000Y-59812500D03*
X138650000Y-59012500D03*
X138650000Y-58212500D03*
X138650000Y-57412500D03*
X138650000Y-56612500D03*
D20*
X140350000Y-54912500D03*
X141150000Y-54912500D03*
X141950000Y-54912500D03*
X142750000Y-54912500D03*
X143550000Y-54912500D03*
X144350000Y-54912500D03*
X145150000Y-54912500D03*
X145950000Y-54912500D03*
X146750000Y-54912500D03*
X147550000Y-54912500D03*
X148350000Y-54912500D03*
%TD*%
D10*
%TO.C,R6*%
X122800000Y-71602500D03*
X123820000Y-71602500D03*
%TD*%
D11*
%TO.C,R3*%
X154170000Y-58212500D03*
X153150000Y-58212500D03*
%TD*%
D10*
%TO.C,R2*%
X154170000Y-59272500D03*
X153150000Y-59272500D03*
%TD*%
%TO.C,R8*%
X117800000Y-71602500D03*
X118820000Y-71602500D03*
%TD*%
D17*
%TO.C,D6*%
X169150000Y-102575000D03*
X169150000Y-99275000D03*
%TD*%
D11*
%TO.C,R4*%
X159950000Y-56982500D03*
X158930000Y-56982500D03*
%TD*%
D13*
%TO.C,C7*%
X119950000Y-72712500D03*
X120910000Y-72712500D03*
%TD*%
D10*
%TO.C,R5*%
X167710000Y-56982500D03*
X168730000Y-56982500D03*
%TD*%
D17*
%TO.C,D3*%
X169150000Y-85575000D03*
X169150000Y-82275000D03*
%TD*%
%TO.C,D4*%
X133150000Y-102575000D03*
X133150000Y-99275000D03*
%TD*%
%TO.C,D2*%
X151150000Y-85575000D03*
X151150000Y-82275000D03*
%TD*%
D21*
%TO.C,C4*%
X151650000Y-67492500D03*
X151650000Y-66532500D03*
%TD*%
D17*
%TO.C,D9*%
X169150000Y-119575000D03*
X169150000Y-116275000D03*
%TD*%
D21*
%TO.C,C6*%
X149250000Y-69612500D03*
X149250000Y-70572500D03*
%TD*%
D13*
%TO.C,C9*%
X124950000Y-72712500D03*
X125910000Y-72712500D03*
%TD*%
D17*
%TO.C,D8*%
X151150000Y-119575000D03*
X151150000Y-116275000D03*
%TD*%
D10*
%TO.C,R9*%
X124900000Y-71602500D03*
X125920000Y-71602500D03*
%TD*%
%TO.C,R1*%
X140360000Y-51200000D03*
X139340000Y-51200000D03*
%TD*%
D11*
%TO.C,R10*%
X120920000Y-71602500D03*
X119900000Y-71602500D03*
%TD*%
D22*
%TO.C,Y1*%
X147550000Y-69712500D03*
X147550000Y-71912500D03*
X145850000Y-71912500D03*
X145850000Y-69712500D03*
%TD*%
D13*
%TO.C,C5*%
X146820000Y-73772500D03*
X145860000Y-73772500D03*
%TD*%
D11*
%TO.C,R7*%
X136650000Y-59012500D03*
X135630000Y-59012500D03*
%TD*%
D17*
%TO.C,D7*%
X133150000Y-119575000D03*
X133150000Y-116275000D03*
%TD*%
M02*
