M48
; DRILL file {KiCad 8.0.3} date 2024-08-13T15:55:57-0400
; FORMAT={-:-/ absolute / inch / decimal}
; #@! TF.CreationDate,2024-08-13T15:55:57-04:00
; #@! TF.GenerationSoftware,Kicad,Pcbnew,8.0.3
; #@! TF.FileFunction,Plated,1,2,PTH
FMAT,2
INCH
; #@! TA.AperFunction,Plated,PTH,ViaDrill
T1C0.0118
; #@! TA.AperFunction,Plated,PTH,ComponentDrill
T2C0.0236
; #@! TA.AperFunction,Plated,PTH,ComponentDrill
T3C0.0394
; #@! TA.AperFunction,Plated,PTH,ComponentDrill
T4C0.0787
; #@! TA.AperFunction,Plated,PTH,ComponentDrill
T5C0.1201
; #@! TA.AperFunction,Plated,PTH,ComponentDrill
T6C0.1811
%
G90
G05
T1
X4.7996Y-2.8194
X4.9862Y-2.032
X5.1437Y-3.406
X5.3878Y-2.4808
X5.5886Y-2.6777
X5.6201Y-2.7249
X5.6516Y-2.6777
X5.684Y-2.3115
X5.7118Y-2.545
X5.7354Y-3.0214
X5.8091Y-2.5438
X5.8551Y-3.3575
X6.0539Y-3.4525
X6.453Y-2.7426
X6.4864Y-2.7426
T3
X4.7205Y-2.1658
X4.7205Y-2.7367
X4.8189Y-2.7367
X4.9173Y-2.1658
X4.9173Y-2.7367
X6.5886Y-2.3903
X6.5886Y-2.4903
X6.5886Y-2.5903
X6.5886Y-2.6903
T5
X4.8878Y-3.063
X4.8878Y-3.7323
X4.8878Y-4.4016
X5.0846Y-3.1457
X5.0846Y-3.815
X5.0846Y-4.4843
X5.5965Y-3.063
X5.5965Y-3.7323
X5.5965Y-4.4016
X5.7933Y-3.1457
X5.7933Y-3.815
X5.7933Y-4.4843
X6.3051Y-3.063
X6.3051Y-3.7323
X6.3051Y-4.4016
X6.502Y-3.1457
X6.502Y-3.815
X6.502Y-4.4843
T6
X5.2421Y-3.6073
X5.9508Y-4.2766
T2
G00X6.2799Y-1.984
M15
G01X6.2799Y-1.9603
M16
G05
G00X6.2799Y-2.1584
M15
G01X6.2799Y-2.1151
M16
G05
G00X6.6201Y-1.984
M15
G01X6.6201Y-1.9603
M16
G05
G00X6.6201Y-2.1584
M15
G01X6.6201Y-2.1151
M16
G05
T4
G00X4.5984Y-2.4257
M15
G01X4.5984Y-2.4572
M16
G05
G00X5.0394Y-2.4257
M15
G01X5.0394Y-2.4572
M16
G05
M30
