%TF.GenerationSoftware,KiCad,Pcbnew,8.0.3*%
%TF.CreationDate,2024-08-13T15:55:55-04:00*%
%TF.ProjectId,MACROPAD,4d414352-4f50-4414-942e-6b696361645f,rev?*%
%TF.SameCoordinates,Original*%
%TF.FileFunction,Legend,Top*%
%TF.FilePolarity,Positive*%
%FSLAX46Y46*%
G04 Gerber Fmt 4.6, Leading zero omitted, Abs format (unit mm)*
G04 Created by KiCad (PCBNEW 8.0.3) date 2024-08-13 15:55:55*
%MOMM*%
%LPD*%
G01*
G04 APERTURE LIST*
%ADD10C,0.000000*%
%ADD11C,0.120000*%
%ADD12C,0.100000*%
G04 APERTURE END LIST*
D10*
%TO.C,G\u002A\u002A\u002A*%
G36*
X139213698Y-54073521D02*
G01*
X139272735Y-54112639D01*
X139293077Y-54177927D01*
X139273331Y-54280984D01*
X139212101Y-54433411D01*
X139156360Y-54550370D01*
X139048985Y-54798849D01*
X138965948Y-55065829D01*
X138902011Y-55371780D01*
X138851936Y-55737174D01*
X138851352Y-55742420D01*
X138838303Y-55880142D01*
X138840178Y-55956068D01*
X138860296Y-55988199D01*
X138897866Y-55994555D01*
X139006561Y-56023557D01*
X139133539Y-56096921D01*
X139248407Y-56194721D01*
X139299532Y-56257847D01*
X139348593Y-56389803D01*
X139363433Y-56561215D01*
X139344197Y-56738598D01*
X139296846Y-56877664D01*
X139229156Y-56979932D01*
X139143606Y-57045125D01*
X139028321Y-57074687D01*
X138871425Y-57070059D01*
X138661044Y-57032682D01*
X138448254Y-56980696D01*
X138212155Y-56907181D01*
X138049088Y-56826548D01*
X137951453Y-56732617D01*
X137911653Y-56619206D01*
X137911851Y-56544298D01*
X137945656Y-56438548D01*
X138012995Y-56401800D01*
X138103655Y-56435317D01*
X138183634Y-56510635D01*
X138252629Y-56577180D01*
X138342052Y-56628037D01*
X138472839Y-56672666D01*
X138629682Y-56712192D01*
X138796633Y-56749470D01*
X138903080Y-56767337D01*
X138966601Y-56766508D01*
X139004777Y-56747694D01*
X139022778Y-56728136D01*
X139062943Y-56630327D01*
X139070155Y-56509301D01*
X139042319Y-56413694D01*
X138954190Y-56339550D01*
X138822164Y-56289349D01*
X138717904Y-56276627D01*
X138626901Y-56268823D01*
X138566061Y-56237612D01*
X138531949Y-56171294D01*
X138521132Y-56058168D01*
X138530176Y-55886536D01*
X138549134Y-55701631D01*
X138610412Y-55269372D01*
X138689812Y-54907020D01*
X138789669Y-54605405D01*
X138875015Y-54421696D01*
X138987837Y-54230787D01*
X139084232Y-54114278D01*
X139167802Y-54068463D01*
X139213698Y-54073521D01*
G37*
G36*
X144390978Y-53936019D02*
G01*
X144463520Y-54005884D01*
X144461388Y-54100128D01*
X144398048Y-54205660D01*
X144354131Y-54286906D01*
X144304744Y-54428100D01*
X144248535Y-54634204D01*
X144184153Y-54910182D01*
X144110248Y-55260994D01*
X144108688Y-55268690D01*
X144075660Y-55427533D01*
X144050957Y-55524565D01*
X144027283Y-55577081D01*
X143997343Y-55602377D01*
X143962581Y-55615069D01*
X143882075Y-55645561D01*
X143767850Y-55694975D01*
X143729841Y-55712447D01*
X143636110Y-55758495D01*
X143610202Y-55781207D01*
X143645936Y-55789277D01*
X143674508Y-55790316D01*
X143773905Y-55813993D01*
X143830442Y-55853062D01*
X143856834Y-55898644D01*
X143861928Y-55961024D01*
X143844458Y-56061021D01*
X143809601Y-56195992D01*
X143801470Y-56244008D01*
X143821510Y-56244933D01*
X143879043Y-56193862D01*
X143947826Y-56123285D01*
X144057855Y-56021733D01*
X144136809Y-55977603D01*
X144163623Y-55979961D01*
X144224899Y-56020563D01*
X144322130Y-56088417D01*
X144370890Y-56123224D01*
X144468278Y-56189568D01*
X144537902Y-56230251D01*
X144554974Y-56236309D01*
X144589119Y-56204407D01*
X144643890Y-56123947D01*
X144669545Y-56080221D01*
X144767737Y-55946556D01*
X144912463Y-55797334D01*
X145078869Y-55654495D01*
X145242102Y-55539979D01*
X145338816Y-55489394D01*
X145568853Y-55434751D01*
X145803104Y-55453693D01*
X146023946Y-55542182D01*
X146206313Y-55688100D01*
X146298495Y-55759669D01*
X146390944Y-55792579D01*
X146397480Y-55792817D01*
X146490859Y-55822591D01*
X146537108Y-55866801D01*
X146614538Y-55923325D01*
X146670933Y-55924035D01*
X146766577Y-55938226D01*
X146812919Y-55972791D01*
X146840737Y-56024080D01*
X146832086Y-56087532D01*
X146782643Y-56188784D01*
X146773849Y-56204540D01*
X146720715Y-56302968D01*
X146707093Y-56346194D01*
X146731245Y-56348301D01*
X146757350Y-56338162D01*
X146924513Y-56287590D01*
X147042568Y-56299193D01*
X147103116Y-56353116D01*
X147163527Y-56418521D01*
X147209586Y-56437896D01*
X147231956Y-56416431D01*
X147198172Y-56347618D01*
X147179729Y-56320800D01*
X147110413Y-56193665D01*
X147102728Y-56098479D01*
X147136666Y-56054880D01*
X147168396Y-56014481D01*
X147170815Y-55943735D01*
X147141212Y-55833997D01*
X147076872Y-55676621D01*
X146975085Y-55462961D01*
X146911047Y-55335750D01*
X146805853Y-55126262D01*
X146734643Y-54974972D01*
X146692859Y-54869246D01*
X146675946Y-54796454D01*
X146679346Y-54743964D01*
X146688436Y-54718703D01*
X146759720Y-54640743D01*
X146864880Y-54629581D01*
X146993302Y-54684767D01*
X147059846Y-54734484D01*
X147174389Y-54824785D01*
X147313138Y-54925367D01*
X147373254Y-54966309D01*
X147503313Y-55074015D01*
X147620714Y-55206137D01*
X147658648Y-55262438D01*
X147779415Y-55423432D01*
X147919648Y-55515102D01*
X148097813Y-55548753D01*
X148127496Y-55549484D01*
X148284868Y-55516053D01*
X148404367Y-55422886D01*
X148477853Y-55285198D01*
X148497187Y-55118205D01*
X148454587Y-54937969D01*
X148370546Y-54814769D01*
X148250876Y-54763487D01*
X148094625Y-54783818D01*
X148039225Y-54804356D01*
X147898693Y-54851471D01*
X147781222Y-54855752D01*
X147663762Y-54811845D01*
X147523264Y-54714394D01*
X147471379Y-54672436D01*
X147266113Y-54507192D01*
X147112152Y-54393331D01*
X147002743Y-54326272D01*
X146931135Y-54301439D01*
X146923713Y-54301071D01*
X146836746Y-54271582D01*
X146794262Y-54200173D01*
X146796650Y-54112436D01*
X146844296Y-54033961D01*
X146919069Y-53994046D01*
X147016763Y-54004196D01*
X147156953Y-54066056D01*
X147327211Y-54172300D01*
X147515109Y-54315601D01*
X147623162Y-54409088D01*
X147720368Y-54492513D01*
X147788969Y-54529646D01*
X147858701Y-54529856D01*
X147939019Y-54508619D01*
X148184610Y-54462332D01*
X148388315Y-54483777D01*
X148550166Y-54571331D01*
X148691412Y-54734638D01*
X148769639Y-54938162D01*
X148789682Y-55148049D01*
X148756185Y-55388465D01*
X148663517Y-55585652D01*
X148523412Y-55734776D01*
X148347607Y-55831005D01*
X148147835Y-55869505D01*
X147935832Y-55845445D01*
X147723334Y-55753990D01*
X147579600Y-55646405D01*
X147479776Y-55542237D01*
X147402340Y-55436930D01*
X147382103Y-55398169D01*
X147322225Y-55299432D01*
X147258574Y-55238326D01*
X147226647Y-55227713D01*
X147227316Y-55261080D01*
X147263153Y-55347491D01*
X147325278Y-55473537D01*
X147416504Y-55676678D01*
X147464876Y-55851575D01*
X147479064Y-55986593D01*
X147512166Y-56209021D01*
X147580427Y-56402687D01*
X147642194Y-56579605D01*
X147638191Y-56720404D01*
X147569097Y-56819767D01*
X147523670Y-56846590D01*
X147414140Y-56867548D01*
X147336466Y-56840114D01*
X147260676Y-56812242D01*
X147210253Y-56841336D01*
X147191630Y-56866204D01*
X147095848Y-56988153D01*
X147018340Y-57040156D01*
X146945999Y-57026547D01*
X146880852Y-56968928D01*
X146829043Y-56871658D01*
X146814127Y-56787500D01*
X146807563Y-56713333D01*
X146775587Y-56685225D01*
X146699774Y-56697395D01*
X146615413Y-56725158D01*
X146481786Y-56746346D01*
X146370285Y-56719295D01*
X146301793Y-56652118D01*
X146290000Y-56598690D01*
X146307720Y-56516952D01*
X146353132Y-56397299D01*
X146390793Y-56316944D01*
X146460579Y-56171509D01*
X146488241Y-56093319D01*
X146474105Y-56081067D01*
X146443206Y-56107293D01*
X146388873Y-56145324D01*
X146327029Y-56144735D01*
X146243154Y-56099755D01*
X146122726Y-56004615D01*
X146069934Y-55958993D01*
X145941009Y-55857489D01*
X145816440Y-55778195D01*
X145722569Y-55737813D01*
X145720383Y-55737354D01*
X145564649Y-55743296D01*
X145389182Y-55809507D01*
X145210888Y-55924428D01*
X145046677Y-56076501D01*
X144913455Y-56254166D01*
X144882264Y-56310327D01*
X144789964Y-56455508D01*
X144690682Y-56528258D01*
X144569248Y-56536368D01*
X144483819Y-56514893D01*
X144358952Y-56466204D01*
X144252394Y-56412323D01*
X144243573Y-56406781D01*
X144188082Y-56377714D01*
X144137980Y-56381052D01*
X144071711Y-56425047D01*
X143978032Y-56508432D01*
X143819391Y-56648719D01*
X143702427Y-56735618D01*
X143614947Y-56775744D01*
X143544760Y-56775710D01*
X143510799Y-56761883D01*
X143447995Y-56689549D01*
X143428388Y-56559772D01*
X143451509Y-56367622D01*
X143466511Y-56297917D01*
X143487941Y-56196347D01*
X143496595Y-56136164D01*
X143495788Y-56130052D01*
X143455133Y-56121317D01*
X143354085Y-56104960D01*
X143212169Y-56084087D01*
X143167847Y-56077868D01*
X142945997Y-56035256D01*
X142798345Y-55977908D01*
X142719326Y-55902883D01*
X142701746Y-55831822D01*
X142715798Y-55769295D01*
X142765919Y-55716156D01*
X142864059Y-55665512D01*
X143022167Y-55610470D01*
X143151832Y-55572168D01*
X143383077Y-55506843D01*
X143549638Y-55456617D01*
X143663546Y-55411755D01*
X143736834Y-55362522D01*
X143781533Y-55299181D01*
X143809672Y-55211997D01*
X143833285Y-55091234D01*
X143848416Y-55008491D01*
X143917860Y-54672125D01*
X143986581Y-54408782D01*
X144057132Y-54210919D01*
X144132067Y-54070992D01*
X144188636Y-54003342D01*
X144272853Y-53932792D01*
X144334785Y-53915649D01*
X144390978Y-53936019D01*
G37*
G36*
X151066089Y-54626220D02*
G01*
X151097297Y-54655630D01*
X151142547Y-54710073D01*
X151169917Y-54775810D01*
X151183738Y-54873545D01*
X151188338Y-55023978D01*
X151188571Y-55092066D01*
X151186639Y-55262589D01*
X151177787Y-55372453D01*
X151157435Y-55441598D01*
X151121001Y-55489967D01*
X151091187Y-55515961D01*
X151046699Y-55546505D01*
X150993243Y-55566938D01*
X150918750Y-55577389D01*
X150811150Y-55577985D01*
X150658374Y-55568855D01*
X150448351Y-55550127D01*
X150202679Y-55525406D01*
X150079366Y-55514771D01*
X150022022Y-55518404D01*
X150016693Y-55539850D01*
X150036632Y-55567587D01*
X150116120Y-55638018D01*
X150248820Y-55730171D01*
X150414606Y-55832246D01*
X150593355Y-55932440D01*
X150764940Y-56018953D01*
X150909239Y-56079984D01*
X150912302Y-56081074D01*
X151038196Y-56121061D01*
X151157924Y-56145995D01*
X151285928Y-56155320D01*
X151436652Y-56148482D01*
X151624540Y-56124923D01*
X151864035Y-56084089D01*
X152123583Y-56034478D01*
X152387104Y-55984653D01*
X152599580Y-55950530D01*
X152788505Y-55929554D01*
X152981376Y-55919172D01*
X153205688Y-55916830D01*
X153374335Y-55918318D01*
X153992568Y-55926295D01*
X154131450Y-56080020D01*
X154231388Y-56200332D01*
X154344522Y-56350587D01*
X154419705Y-56458719D01*
X154569079Y-56683692D01*
X154660031Y-56460135D01*
X154764734Y-56234392D01*
X154864275Y-56083350D01*
X154957072Y-56009087D01*
X155008870Y-56002248D01*
X155104974Y-56046240D01*
X155151546Y-56126250D01*
X155134859Y-56216560D01*
X155128419Y-56226230D01*
X155084316Y-56300823D01*
X155023907Y-56419700D01*
X154977794Y-56518531D01*
X154884965Y-56722091D01*
X154815479Y-56863030D01*
X154761532Y-56953108D01*
X154715320Y-57004080D01*
X154669038Y-57027705D01*
X154635714Y-57033909D01*
X154524048Y-57019620D01*
X154448175Y-56984006D01*
X154384771Y-56921975D01*
X154295353Y-56813185D01*
X154197177Y-56678920D01*
X154177452Y-56650057D01*
X154074222Y-56495033D01*
X153995986Y-56383706D01*
X153926948Y-56308803D01*
X153851317Y-56263051D01*
X153753299Y-56239177D01*
X153617101Y-56229909D01*
X153426930Y-56227974D01*
X153259050Y-56227138D01*
X152995323Y-56226913D01*
X152787204Y-56232866D01*
X152609759Y-56247282D01*
X152438054Y-56272447D01*
X152247157Y-56310645D01*
X152176349Y-56326354D01*
X151849593Y-56396411D01*
X151583758Y-56442330D01*
X151362464Y-56462927D01*
X151169335Y-56457016D01*
X150987991Y-56423414D01*
X150802053Y-56360935D01*
X150595144Y-56268395D01*
X150462857Y-56202413D01*
X150298946Y-56108532D01*
X150125909Y-55992385D01*
X149957306Y-55865224D01*
X149806699Y-55738304D01*
X149687649Y-55622879D01*
X149613719Y-55530201D01*
X149596031Y-55483089D01*
X149619525Y-55422515D01*
X149673354Y-55343712D01*
X149707317Y-55306211D01*
X149747272Y-55280169D01*
X149807327Y-55263552D01*
X149901594Y-55254321D01*
X150044183Y-55250441D01*
X150249204Y-55249874D01*
X150322310Y-55250038D01*
X150893944Y-55251545D01*
X150879988Y-54952421D01*
X150875645Y-54792229D01*
X150883070Y-54693247D01*
X150905355Y-54636518D01*
X150936027Y-54608775D01*
X150999155Y-54589207D01*
X151066089Y-54626220D01*
G37*
G36*
X132462310Y-52433992D02*
G01*
X132537536Y-52489592D01*
X132580130Y-52569674D01*
X132582063Y-52589529D01*
X132558048Y-52649135D01*
X132481091Y-52703598D01*
X132343823Y-52755923D01*
X132138877Y-52809113D01*
X131943010Y-52850075D01*
X131738323Y-52888392D01*
X131595873Y-52909701D01*
X131499314Y-52915066D01*
X131432298Y-52905553D01*
X131386020Y-52886386D01*
X131272804Y-52857622D01*
X131187389Y-52895838D01*
X131140184Y-52989277D01*
X131141600Y-53126182D01*
X131147991Y-53155212D01*
X131199215Y-53232054D01*
X131281744Y-53252497D01*
X131367483Y-53214674D01*
X131403500Y-53172182D01*
X131435126Y-53134763D01*
X131484611Y-53111007D01*
X131568654Y-53097902D01*
X131703952Y-53092440D01*
X131850776Y-53091547D01*
X132179929Y-53096188D01*
X132432842Y-53110468D01*
X132613397Y-53134921D01*
X132725472Y-53170083D01*
X132772949Y-53216489D01*
X132773619Y-53218810D01*
X132822013Y-53280938D01*
X132864051Y-53293134D01*
X132948314Y-53319695D01*
X132976346Y-53343531D01*
X132999995Y-53400757D01*
X133035797Y-53522896D01*
X133080289Y-53695751D01*
X133130011Y-53905128D01*
X133181500Y-54136831D01*
X133231296Y-54376663D01*
X133244238Y-54442182D01*
X133262170Y-54553660D01*
X133285159Y-54724524D01*
X133310967Y-54934744D01*
X133337358Y-55164290D01*
X133362094Y-55393131D01*
X133382938Y-55601236D01*
X133397652Y-55768575D01*
X133403929Y-55871991D01*
X133402519Y-55984069D01*
X133377311Y-56046329D01*
X133308197Y-56088106D01*
X133236854Y-56115703D01*
X133114979Y-56170365D01*
X133017438Y-56230143D01*
X132996678Y-56247908D01*
X132950704Y-56313725D01*
X132966518Y-56361478D01*
X133048555Y-56392791D01*
X133201253Y-56409286D01*
X133429046Y-56412587D01*
X133446258Y-56412388D01*
X133862913Y-56407037D01*
X134260663Y-56056051D01*
X134499399Y-55853766D01*
X134703173Y-55703027D01*
X134889561Y-55594209D01*
X135076143Y-55517689D01*
X135280496Y-55463844D01*
X135375428Y-55445750D01*
X135559739Y-55421528D01*
X135789922Y-55403213D01*
X136047646Y-55391013D01*
X136314581Y-55385137D01*
X136572396Y-55385794D01*
X136802759Y-55393191D01*
X136987339Y-55407538D01*
X137097619Y-55426151D01*
X137421258Y-55531942D01*
X137675982Y-55662625D01*
X137871445Y-55824958D01*
X138017302Y-56025701D01*
X138053122Y-56095037D01*
X138092605Y-56195526D01*
X138089497Y-56259613D01*
X138066845Y-56294849D01*
X137987246Y-56352986D01*
X137901221Y-56338255D01*
X137804176Y-56248587D01*
X137728851Y-56142662D01*
X137603901Y-55987420D01*
X137445270Y-55866227D01*
X137245495Y-55777217D01*
X136997113Y-55718521D01*
X136692660Y-55688273D01*
X136324675Y-55684604D01*
X135962519Y-55700601D01*
X135701435Y-55718305D01*
X135505156Y-55735752D01*
X135357902Y-55755462D01*
X135243892Y-55779959D01*
X135147345Y-55811765D01*
X135076133Y-55842287D01*
X134945599Y-55916755D01*
X134777865Y-56032334D01*
X134592788Y-56173162D01*
X134410228Y-56323373D01*
X134250041Y-56467102D01*
X134132087Y-56588487D01*
X134112744Y-56611925D01*
X134074390Y-56657262D01*
X134033432Y-56687690D01*
X133974176Y-56706111D01*
X133880925Y-56715424D01*
X133737982Y-56718528D01*
X133536677Y-56718349D01*
X133256278Y-56711119D01*
X133039105Y-56692144D01*
X132893218Y-56662156D01*
X132884978Y-56659342D01*
X132722407Y-56573766D01*
X132635453Y-56462009D01*
X132624814Y-56327717D01*
X132691190Y-56174535D01*
X132772011Y-56070918D01*
X132874474Y-55970092D01*
X132972985Y-55893253D01*
X133018475Y-55868479D01*
X133086699Y-55826742D01*
X133096864Y-55757502D01*
X133089884Y-55721526D01*
X133076140Y-55637569D01*
X133058392Y-55494502D01*
X133039101Y-55313588D01*
X133023488Y-55147738D01*
X132994738Y-54892514D01*
X132951447Y-54595420D01*
X132898252Y-54282525D01*
X132839786Y-53979899D01*
X132780686Y-53713610D01*
X132742127Y-53565277D01*
X132699225Y-53414087D01*
X132149930Y-53414087D01*
X131915928Y-53415916D01*
X131749539Y-53422273D01*
X131637805Y-53434461D01*
X131567770Y-53453785D01*
X131531905Y-53476286D01*
X131395460Y-53551516D01*
X131242425Y-53560392D01*
X131090639Y-53509477D01*
X130957940Y-53405334D01*
X130862168Y-53254524D01*
X130851249Y-53225888D01*
X130819246Y-53115713D01*
X130817782Y-53026450D01*
X130848530Y-52917813D01*
X130865966Y-52871012D01*
X130966322Y-52694359D01*
X131102484Y-52579400D01*
X131262547Y-52532088D01*
X131434608Y-52558377D01*
X131465402Y-52571143D01*
X131534873Y-52589035D01*
X131635697Y-52587791D01*
X131784528Y-52566145D01*
X131941029Y-52535054D01*
X132112638Y-52497475D01*
X132258926Y-52463071D01*
X132358663Y-52436948D01*
X132385357Y-52428219D01*
X132462310Y-52433992D01*
G37*
G36*
X155725405Y-54128202D02*
G01*
X155874022Y-54271605D01*
X156054202Y-54488494D01*
X156077783Y-54519235D01*
X156204322Y-54681558D01*
X156345629Y-54857120D01*
X156453073Y-54986468D01*
X156600627Y-55171827D01*
X156688076Y-55312501D01*
X156717504Y-55415139D01*
X156690994Y-55486384D01*
X156622927Y-55528437D01*
X156562812Y-55522923D01*
X156446725Y-55490585D01*
X156292072Y-55438034D01*
X156116257Y-55371881D01*
X155936684Y-55298739D01*
X155770757Y-55225219D01*
X155635882Y-55157934D01*
X155611108Y-55144050D01*
X155498470Y-55087125D01*
X155428841Y-55068480D01*
X155413093Y-55090353D01*
X155420295Y-55104816D01*
X155425844Y-55160623D01*
X155418874Y-55272864D01*
X155400920Y-55418571D01*
X155398066Y-55437435D01*
X155346825Y-55688802D01*
X155282991Y-55861319D01*
X155206730Y-55954739D01*
X155118209Y-55968817D01*
X155057872Y-55938054D01*
X155023003Y-55906402D01*
X155008977Y-55864276D01*
X155015844Y-55791607D01*
X155043651Y-55668326D01*
X155058667Y-55608204D01*
X155108720Y-55307776D01*
X155106466Y-55057516D01*
X155098026Y-54898281D01*
X155106687Y-54798005D01*
X155134874Y-54736358D01*
X155146318Y-54723529D01*
X155187122Y-54692270D01*
X155237783Y-54681448D01*
X155311706Y-54694464D01*
X155422296Y-54734718D01*
X155582959Y-54805610D01*
X155718078Y-54868548D01*
X155866807Y-54937737D01*
X155985579Y-54991573D01*
X156057336Y-55022395D01*
X156070360Y-55026785D01*
X156056042Y-54998072D01*
X156002309Y-54921877D01*
X155920815Y-54813118D01*
X155823215Y-54686714D01*
X155721166Y-54557582D01*
X155626321Y-54440641D01*
X155550337Y-54350810D01*
X155504904Y-54303034D01*
X155448506Y-54215489D01*
X155458653Y-54122594D01*
X155520823Y-54060170D01*
X155607842Y-54057863D01*
X155725405Y-54128202D01*
G37*
G36*
X151434332Y-52086811D02*
G01*
X151481581Y-52147978D01*
X151476558Y-52220201D01*
X151414637Y-52315435D01*
X151297977Y-52439006D01*
X151100773Y-52680699D01*
X150961572Y-52954916D01*
X150883401Y-53246655D01*
X150869287Y-53540913D01*
X150922255Y-53822688D01*
X150987272Y-53979088D01*
X151099937Y-54128252D01*
X151270159Y-54242613D01*
X151494594Y-54325479D01*
X151665740Y-54382907D01*
X151765533Y-54442545D01*
X151803070Y-54512067D01*
X151794770Y-54578767D01*
X151756197Y-54643250D01*
X151685080Y-54669690D01*
X151568550Y-54658897D01*
X151393741Y-54611679D01*
X151373428Y-54605262D01*
X151121694Y-54493556D01*
X150905682Y-54336180D01*
X150741386Y-54147027D01*
X150658704Y-53984346D01*
X150619752Y-53883378D01*
X150577844Y-53821350D01*
X150511114Y-53781471D01*
X150397693Y-53746953D01*
X150325795Y-53728745D01*
X150190168Y-53697725D01*
X150088745Y-53679939D01*
X150043222Y-53679180D01*
X150043090Y-53679303D01*
X150052318Y-53722404D01*
X150103616Y-53809639D01*
X150185078Y-53925241D01*
X150284797Y-54053441D01*
X150390867Y-54178469D01*
X150491381Y-54284558D01*
X150521532Y-54312931D01*
X150625749Y-54410836D01*
X150706448Y-54493320D01*
X150741091Y-54535437D01*
X150739523Y-54598621D01*
X150695354Y-54675478D01*
X150631745Y-54733024D01*
X150594230Y-54744563D01*
X150550207Y-54718332D01*
X150464049Y-54648129D01*
X150350947Y-54546685D01*
X150293578Y-54492579D01*
X150052190Y-54241529D01*
X149878026Y-54013179D01*
X149764349Y-53798111D01*
X149732693Y-53708387D01*
X149702669Y-53595722D01*
X149703588Y-53526758D01*
X149740645Y-53468783D01*
X149776686Y-53431355D01*
X149837763Y-53374907D01*
X149894219Y-53345428D01*
X149967538Y-53341067D01*
X150079200Y-53359977D01*
X150220952Y-53393122D01*
X150356155Y-53424316D01*
X150461842Y-53446066D01*
X150508046Y-53452968D01*
X150536911Y-53417027D01*
X150564063Y-53321177D01*
X150579712Y-53220381D01*
X150621368Y-53013892D01*
X150695530Y-52804125D01*
X150794333Y-52601511D01*
X150909916Y-52416476D01*
X151034414Y-52259453D01*
X151159966Y-52140869D01*
X151278709Y-52071154D01*
X151382779Y-52060738D01*
X151434332Y-52086811D01*
G37*
G36*
X139762297Y-52976078D02*
G01*
X139962514Y-53041947D01*
X140215045Y-53147133D01*
X140489671Y-53277433D01*
X140837754Y-53450498D01*
X140992084Y-53371816D01*
X141175854Y-53311531D01*
X141403985Y-53293134D01*
X141549682Y-53296733D01*
X141644694Y-53314444D01*
X141718881Y-53356638D01*
X141798635Y-53430214D01*
X141905628Y-53588757D01*
X141946118Y-53770548D01*
X141923927Y-53959381D01*
X141842877Y-54139052D01*
X141706789Y-54293357D01*
X141574418Y-54380909D01*
X141387711Y-54443656D01*
X141181070Y-54462094D01*
X140985795Y-54436053D01*
X140861621Y-54384823D01*
X140770259Y-54322148D01*
X140711974Y-54269528D01*
X140708051Y-54264021D01*
X140659603Y-54232667D01*
X140561223Y-54223268D01*
X140405115Y-54236229D01*
X140183486Y-54271953D01*
X140047127Y-54298184D01*
X139788475Y-54343648D01*
X139598065Y-54361341D01*
X139468045Y-54350175D01*
X139390566Y-54309060D01*
X139357775Y-54236908D01*
X139355397Y-54202211D01*
X139380864Y-54117282D01*
X139463624Y-54071531D01*
X139596161Y-54059166D01*
X139684256Y-54051141D01*
X139827312Y-54029599D01*
X140001536Y-53998337D01*
X140101270Y-53978531D01*
X140416951Y-53922351D01*
X140661941Y-53898897D01*
X140839380Y-53908473D01*
X140952406Y-53951383D01*
X141004159Y-54027933D01*
X141008412Y-54066462D01*
X141040475Y-54134441D01*
X141123672Y-54166130D01*
X141238519Y-54164160D01*
X141365531Y-54131163D01*
X141485222Y-54069769D01*
X141572226Y-53990334D01*
X141641966Y-53854601D01*
X141640882Y-53725182D01*
X141585715Y-53634292D01*
X141491225Y-53589634D01*
X141357939Y-53583549D01*
X141215929Y-53612669D01*
X141095267Y-53673624D01*
X141073859Y-53691640D01*
X140982713Y-53753374D01*
X140901446Y-53776944D01*
X140833444Y-53759820D01*
X140711970Y-53713421D01*
X140555331Y-53645209D01*
X140411808Y-53577409D01*
X140221974Y-53488266D01*
X140034556Y-53406569D01*
X139875321Y-53343245D01*
X139795356Y-53315979D01*
X139666827Y-53272536D01*
X139566019Y-53229106D01*
X139531640Y-53208196D01*
X139481007Y-53121503D01*
X139495802Y-53022726D01*
X139538955Y-52968827D01*
X139619431Y-52951159D01*
X139762297Y-52976078D01*
G37*
G36*
X144437339Y-53109614D02*
G01*
X144470810Y-53163430D01*
X144475714Y-53208981D01*
X144460138Y-53279183D01*
X144404274Y-53334063D01*
X144294420Y-53382526D01*
X144139181Y-53427730D01*
X144009494Y-53464791D01*
X143913406Y-53498355D01*
X143877117Y-53517241D01*
X143894874Y-53528757D01*
X143970293Y-53526413D01*
X144082147Y-53513050D01*
X144209213Y-53491512D01*
X144330266Y-53464639D01*
X144384367Y-53449319D01*
X144532448Y-53426722D01*
X144642881Y-53458568D01*
X144695306Y-53523805D01*
X144696151Y-53604157D01*
X144629354Y-53672675D01*
X144491039Y-53731474D01*
X144277333Y-53782666D01*
X144193492Y-53797603D01*
X143998313Y-53832804D01*
X143807347Y-53871594D01*
X143652263Y-53907397D01*
X143608889Y-53918976D01*
X143482489Y-53962431D01*
X143407349Y-54016182D01*
X143355085Y-54103125D01*
X143341454Y-54134681D01*
X143276732Y-54250435D01*
X143198647Y-54339259D01*
X143180184Y-54352772D01*
X143041260Y-54411222D01*
X142879735Y-54439013D01*
X142731293Y-54432127D01*
X142665364Y-54410718D01*
X142497812Y-54283667D01*
X142380024Y-54109033D01*
X142315620Y-53905358D01*
X142310215Y-53748997D01*
X142629056Y-53748997D01*
X142641007Y-53919310D01*
X142694571Y-54047858D01*
X142779211Y-54124790D01*
X142884386Y-54140257D01*
X142993263Y-54089404D01*
X143050341Y-54020218D01*
X143108975Y-53913096D01*
X143119864Y-53887817D01*
X143155280Y-53790561D01*
X143155800Y-53746557D01*
X143124425Y-53736627D01*
X143074314Y-53716468D01*
X143225873Y-53716468D01*
X143246031Y-53736627D01*
X143266190Y-53716468D01*
X143246031Y-53696309D01*
X143225873Y-53716468D01*
X143074314Y-53716468D01*
X143062198Y-53711594D01*
X142969453Y-53648127D01*
X142921119Y-53608183D01*
X142836147Y-53548478D01*
X143763439Y-53548478D01*
X143768973Y-53572447D01*
X143790317Y-53575357D01*
X143823503Y-53560605D01*
X143817196Y-53548478D01*
X143769348Y-53543653D01*
X143763439Y-53548478D01*
X142836147Y-53548478D01*
X142802665Y-53524952D01*
X142716819Y-53514480D01*
X142660736Y-53578137D01*
X142631571Y-53717295D01*
X142629056Y-53748997D01*
X142310215Y-53748997D01*
X142308217Y-53691183D01*
X142361434Y-53485051D01*
X142454943Y-53332503D01*
X142590397Y-53222016D01*
X142744714Y-53188833D01*
X142913187Y-53233141D01*
X143035363Y-53309100D01*
X143186039Y-53424026D01*
X143558734Y-53293538D01*
X143853217Y-53194146D01*
X144081141Y-53126720D01*
X144249683Y-53090597D01*
X144366023Y-53085116D01*
X144437339Y-53109614D01*
G37*
G36*
X148224913Y-51371544D02*
G01*
X148345853Y-51406897D01*
X148454301Y-51444732D01*
X148678123Y-51561216D01*
X148884513Y-51728353D01*
X149052961Y-51926010D01*
X149162958Y-52134053D01*
X149166341Y-52143736D01*
X149248340Y-52453285D01*
X149266849Y-52724548D01*
X149218818Y-52963949D01*
X149101195Y-53177911D01*
X148910928Y-53372857D01*
X148644967Y-53555210D01*
X148444716Y-53662777D01*
X148253282Y-53755518D01*
X148109063Y-53816910D01*
X147988438Y-53854132D01*
X147867786Y-53874363D01*
X147723486Y-53884782D01*
X147712521Y-53885300D01*
X147506318Y-53887020D01*
X147342476Y-53866934D01*
X147184586Y-53820466D01*
X147178365Y-53818175D01*
X147000281Y-53742541D01*
X146896412Y-53673084D01*
X146861138Y-53604642D01*
X146880275Y-53544362D01*
X146938142Y-53497198D01*
X147037258Y-53483492D01*
X147188292Y-53503484D01*
X147396900Y-53555986D01*
X147538673Y-53592645D01*
X147643242Y-53604020D01*
X147749902Y-53590311D01*
X147873935Y-53558426D01*
X148066159Y-53493580D01*
X148278863Y-53403932D01*
X148483594Y-53302940D01*
X148651900Y-53204061D01*
X148708166Y-53163846D01*
X148855992Y-53011202D01*
X148933393Y-52832133D01*
X148950686Y-52663203D01*
X148917872Y-52390372D01*
X148825616Y-52132190D01*
X148746675Y-51999198D01*
X148624167Y-51878645D01*
X148455580Y-51776821D01*
X148272948Y-51709398D01*
X148117401Y-51691370D01*
X148014799Y-51690785D01*
X147966877Y-51664120D01*
X147949864Y-51606556D01*
X147968071Y-51500300D01*
X148035802Y-51407936D01*
X148128861Y-51359623D01*
X148149339Y-51357896D01*
X148224913Y-51371544D01*
G37*
G36*
X155267841Y-49455199D02*
G01*
X155404014Y-49571054D01*
X155502149Y-49729104D01*
X155550587Y-49916554D01*
X155545720Y-50079079D01*
X155521001Y-50173569D01*
X155470397Y-50324491D01*
X155400242Y-50514355D01*
X155316868Y-50725673D01*
X155273467Y-50830896D01*
X155112039Y-51221377D01*
X154984579Y-51540565D01*
X154891197Y-51788150D01*
X154832005Y-51963822D01*
X154807114Y-52067272D01*
X154816636Y-52098190D01*
X154818913Y-52097511D01*
X154903157Y-52103634D01*
X155027248Y-52162894D01*
X155178088Y-52267609D01*
X155327555Y-52395921D01*
X155469057Y-52549991D01*
X155556413Y-52704703D01*
X155583280Y-52781941D01*
X155637011Y-53065524D01*
X155629129Y-53332763D01*
X155561777Y-53569614D01*
X155437098Y-53762031D01*
X155433111Y-53766314D01*
X155341618Y-53827758D01*
X155230911Y-53857551D01*
X155135210Y-53848958D01*
X155106084Y-53830701D01*
X155076768Y-53756563D01*
X155088478Y-53665906D01*
X155133141Y-53598798D01*
X155154926Y-53588324D01*
X155228089Y-53538660D01*
X155275879Y-53469249D01*
X155310253Y-53333121D01*
X155319564Y-53155328D01*
X155304919Y-52970471D01*
X155267426Y-52813155D01*
X155253817Y-52780494D01*
X155180034Y-52671843D01*
X155070698Y-52561744D01*
X154949294Y-52469396D01*
X154839307Y-52413996D01*
X154795871Y-52406150D01*
X154713429Y-52377112D01*
X154673314Y-52342400D01*
X154640819Y-52279398D01*
X154664004Y-52207615D01*
X154673671Y-52191210D01*
X154702666Y-52136824D01*
X154696182Y-52132589D01*
X154640838Y-52138727D01*
X154585454Y-52118607D01*
X154530196Y-52067256D01*
X154521785Y-51981112D01*
X154526528Y-51946088D01*
X154552375Y-51849781D01*
X154608643Y-51686153D01*
X154692899Y-51461518D01*
X154802709Y-51182192D01*
X154935638Y-50854490D01*
X155089253Y-50484729D01*
X155095055Y-50470912D01*
X155192159Y-50203760D01*
X155234405Y-49994928D01*
X155221874Y-49843716D01*
X155177120Y-49768236D01*
X155073236Y-49710398D01*
X154957474Y-49731961D01*
X154830859Y-49832733D01*
X154829561Y-49834119D01*
X154759287Y-49929264D01*
X154666914Y-50082673D01*
X154560535Y-50277844D01*
X154448247Y-50498272D01*
X154338143Y-50727453D01*
X154238317Y-50948885D01*
X154156866Y-51146063D01*
X154101882Y-51302484D01*
X154092076Y-51337738D01*
X154034876Y-51517069D01*
X153970888Y-51620562D01*
X153895068Y-51652996D01*
X153802373Y-51619149D01*
X153798040Y-51616351D01*
X153715650Y-51579785D01*
X153604570Y-51568562D01*
X153452671Y-51578451D01*
X153194942Y-51599102D01*
X152981334Y-51603944D01*
X152822987Y-51593229D01*
X152731043Y-51567208D01*
X152723631Y-51561971D01*
X152701185Y-51519463D01*
X152683358Y-51427940D01*
X152669309Y-51279066D01*
X152658195Y-51064501D01*
X152650927Y-50842752D01*
X152640972Y-50559812D01*
X152627633Y-50342522D01*
X152609318Y-50175917D01*
X152584434Y-50045031D01*
X152555586Y-49946785D01*
X152509157Y-49822023D01*
X152468885Y-49755763D01*
X152416763Y-49729579D01*
X152338901Y-49725039D01*
X152243380Y-49735579D01*
X152177490Y-49780657D01*
X152111890Y-49880465D01*
X152111167Y-49881753D01*
X152040609Y-50046479D01*
X151974668Y-50272238D01*
X151917091Y-50539433D01*
X151871621Y-50828467D01*
X151842004Y-51119742D01*
X151832239Y-51341339D01*
X151827373Y-51560812D01*
X151817528Y-51712020D01*
X151799490Y-51807313D01*
X151770048Y-51859042D01*
X151725988Y-51879558D01*
X151691579Y-51882023D01*
X151605268Y-51844553D01*
X151546191Y-51734423D01*
X151514863Y-51555054D01*
X151511801Y-51309864D01*
X151537519Y-51002275D01*
X151547259Y-50925311D01*
X151613069Y-50504549D01*
X151689176Y-50159162D01*
X151777929Y-49884281D01*
X151881679Y-49675039D01*
X152002777Y-49526569D01*
X152143573Y-49434001D01*
X152286241Y-49394838D01*
X152456236Y-49396128D01*
X152598641Y-49452090D01*
X152715384Y-49566652D01*
X152808390Y-49743738D01*
X152879586Y-49987277D01*
X152930901Y-50301193D01*
X152964259Y-50689415D01*
X152969474Y-50787135D01*
X152995474Y-51325103D01*
X153120118Y-51296508D01*
X153225962Y-51277763D01*
X153377004Y-51257528D01*
X153518701Y-51242349D01*
X153792641Y-51216785D01*
X153924654Y-50894246D01*
X154090938Y-50515598D01*
X154260563Y-50181314D01*
X154429246Y-49897764D01*
X154592705Y-49671321D01*
X154746659Y-49508355D01*
X154886825Y-49415239D01*
X154928016Y-49401247D01*
X155105288Y-49394331D01*
X155267841Y-49455199D01*
G37*
G36*
X153477414Y-53064669D02*
G01*
X153579776Y-53145837D01*
X153642192Y-53227367D01*
X153691830Y-53277957D01*
X153750647Y-53266374D01*
X153778654Y-53249951D01*
X153854858Y-53217503D01*
X153916864Y-53242079D01*
X153926885Y-53250100D01*
X153982563Y-53333623D01*
X153974355Y-53422585D01*
X153917116Y-53505061D01*
X153825705Y-53569127D01*
X153714976Y-53602859D01*
X153599788Y-53594331D01*
X153535327Y-53564372D01*
X153462231Y-53527277D01*
X153402323Y-53541308D01*
X153349726Y-53580087D01*
X153226785Y-53643981D01*
X153085893Y-53642065D01*
X152962524Y-53600115D01*
X152824320Y-53520655D01*
X152763953Y-53434731D01*
X152778663Y-53338244D01*
X152781882Y-53332011D01*
X152840392Y-53272230D01*
X152932502Y-53266026D01*
X153068269Y-53310448D01*
X153113550Y-53316354D01*
X153119215Y-53266339D01*
X153114106Y-53235734D01*
X153115270Y-53153857D01*
X153172673Y-53104736D01*
X153202509Y-53092283D01*
X153359402Y-53049197D01*
X153477414Y-53064669D01*
G37*
G36*
X152444347Y-52912595D02*
G01*
X152497283Y-52948501D01*
X152529106Y-53038757D01*
X152486171Y-53133208D01*
X152373358Y-53223406D01*
X152323028Y-53250122D01*
X152163359Y-53310001D01*
X152021459Y-53331841D01*
X151915464Y-53314951D01*
X151866286Y-53267496D01*
X151866270Y-53170131D01*
X151944793Y-53085865D01*
X152088515Y-53020031D01*
X152190527Y-52978431D01*
X152250397Y-52939329D01*
X152256984Y-52926918D01*
X152288819Y-52895709D01*
X152362291Y-52891925D01*
X152444347Y-52912595D01*
G37*
G36*
X154385463Y-52773444D02*
G01*
X154499964Y-52844495D01*
X154557237Y-52906144D01*
X154574904Y-52978983D01*
X154575238Y-52995190D01*
X154552739Y-53086888D01*
X154482916Y-53119976D01*
X154362283Y-53094950D01*
X154244173Y-53042328D01*
X154110865Y-52960202D01*
X154053502Y-52883524D01*
X154068501Y-52804429D01*
X154111750Y-52751539D01*
X154195687Y-52668214D01*
X154385463Y-52773444D01*
G37*
G36*
X145163878Y-49469270D02*
G01*
X145197384Y-49486931D01*
X145347338Y-49615998D01*
X145490041Y-49819971D01*
X145621815Y-50093200D01*
X145665167Y-50205499D01*
X145773034Y-50501251D01*
X145951011Y-50525645D01*
X146105290Y-50560815D01*
X146257328Y-50616224D01*
X146281472Y-50627832D01*
X146433956Y-50705623D01*
X146565526Y-50451861D01*
X146698296Y-50231815D01*
X146857851Y-50023489D01*
X147028898Y-49843352D01*
X147196144Y-49707872D01*
X147316914Y-49642713D01*
X147517448Y-49596397D01*
X147706306Y-49621113D01*
X147900095Y-49719563D01*
X147933854Y-49743196D01*
X148061220Y-49862131D01*
X148170533Y-50025666D01*
X148266454Y-50243684D01*
X148353645Y-50526068D01*
X148407487Y-50747218D01*
X148454463Y-50972152D01*
X148476905Y-51130664D01*
X148473659Y-51233503D01*
X148443568Y-51291419D01*
X148385477Y-51315163D01*
X148346190Y-51317579D01*
X148289164Y-51307245D01*
X148243575Y-51268021D01*
X148203495Y-51187574D01*
X148162994Y-51053571D01*
X148116145Y-50853680D01*
X148110294Y-50826886D01*
X148045195Y-50551459D01*
X147982574Y-50343305D01*
X147917107Y-50189442D01*
X147843471Y-50076888D01*
X147774215Y-50007111D01*
X147626722Y-49922847D01*
X147474390Y-49915662D01*
X147315447Y-49986268D01*
X147148122Y-50135376D01*
X147003585Y-50316486D01*
X146877610Y-50508474D01*
X146780852Y-50686857D01*
X146719870Y-50837191D01*
X146701226Y-50945035D01*
X146706269Y-50971011D01*
X146697806Y-51039619D01*
X146643404Y-51104916D01*
X146571191Y-51142825D01*
X146515308Y-51134455D01*
X146347861Y-51013010D01*
X146223358Y-50932762D01*
X146121226Y-50885235D01*
X146020892Y-50861949D01*
X145901784Y-50854428D01*
X145834572Y-50853928D01*
X145555041Y-50853928D01*
X145440824Y-50503687D01*
X145332793Y-50200695D01*
X145229098Y-49973629D01*
X145125389Y-49818247D01*
X145017317Y-49730309D01*
X144900531Y-49705575D01*
X144770683Y-49739803D01*
X144697441Y-49778956D01*
X144570583Y-49896445D01*
X144458726Y-50075372D01*
X144368925Y-50296929D01*
X144308237Y-50542311D01*
X144283717Y-50792712D01*
X144284993Y-50878222D01*
X144278157Y-51018558D01*
X144247178Y-51118148D01*
X144238743Y-51130206D01*
X144156473Y-51187121D01*
X144070721Y-51188479D01*
X144010776Y-51136001D01*
X144003688Y-51116378D01*
X143970403Y-51060076D01*
X143898087Y-51056219D01*
X143876430Y-51060765D01*
X143715065Y-51110449D01*
X143563965Y-51177843D01*
X143447036Y-51250716D01*
X143391875Y-51308737D01*
X143330745Y-51496457D01*
X143317621Y-51718795D01*
X143348946Y-51948375D01*
X143421164Y-52157818D01*
X143522029Y-52310664D01*
X143655233Y-52415392D01*
X143836435Y-52508867D01*
X144033035Y-52577421D01*
X144212432Y-52607384D01*
X144230516Y-52607738D01*
X144344168Y-52636167D01*
X144422443Y-52707357D01*
X144448165Y-52800159D01*
X144432061Y-52855876D01*
X144360230Y-52911629D01*
X144225373Y-52925034D01*
X144024843Y-52896263D01*
X143976493Y-52885432D01*
X143803004Y-52827512D01*
X143614359Y-52737523D01*
X143436406Y-52630346D01*
X143294992Y-52520860D01*
X143238871Y-52460822D01*
X143120111Y-52244684D01*
X143047577Y-51974565D01*
X143025171Y-51684108D01*
X143052602Y-51406766D01*
X143136168Y-51183756D01*
X143280844Y-51008575D01*
X143491604Y-50874723D01*
X143705718Y-50794632D01*
X143980681Y-50712745D01*
X144003410Y-50520835D01*
X144061137Y-50251108D01*
X144163569Y-49992551D01*
X144300265Y-49763233D01*
X144460782Y-49581222D01*
X144605907Y-49478356D01*
X144785530Y-49422958D01*
X144983632Y-49420105D01*
X145163878Y-49469270D01*
G37*
G36*
X138117635Y-49359432D02*
G01*
X138308261Y-49408871D01*
X138475083Y-49497324D01*
X138626539Y-49633478D01*
X138771066Y-49826023D01*
X138917100Y-50083647D01*
X139012710Y-50281188D01*
X139132849Y-50573685D01*
X139200895Y-50824936D01*
X139220266Y-51052180D01*
X139201816Y-51234969D01*
X139181411Y-51362946D01*
X139183976Y-51441632D01*
X139216553Y-51500780D01*
X139279709Y-51564105D01*
X139413305Y-51737097D01*
X139512692Y-51963407D01*
X139571979Y-52220851D01*
X139585272Y-52487247D01*
X139567673Y-52648055D01*
X139539996Y-52763233D01*
X139501296Y-52820163D01*
X139436135Y-52841110D01*
X139433618Y-52841414D01*
X139345898Y-52840283D01*
X139303491Y-52824615D01*
X139289233Y-52772653D01*
X139278880Y-52663158D01*
X139274558Y-52519215D01*
X139274537Y-52510304D01*
X139259766Y-52236612D01*
X139213695Y-52026875D01*
X139132955Y-51869401D01*
X139069139Y-51797618D01*
X138993738Y-51714682D01*
X138953124Y-51645735D01*
X138950940Y-51634022D01*
X138926975Y-51559762D01*
X138894367Y-51506719D01*
X138860796Y-51430361D01*
X138869725Y-51325955D01*
X138879768Y-51286426D01*
X138910408Y-51097798D01*
X138896982Y-50896797D01*
X138836570Y-50669006D01*
X138726255Y-50400012D01*
X138681087Y-50305225D01*
X138589290Y-50127468D01*
X138498395Y-49968407D01*
X138419962Y-49847371D01*
X138372789Y-49789803D01*
X138222233Y-49702012D01*
X138027640Y-49669472D01*
X137801998Y-49690421D01*
X137558291Y-49763099D01*
X137309508Y-49885742D01*
X137213432Y-49947063D01*
X137090514Y-50023968D01*
X136990800Y-50073595D01*
X136934221Y-50086179D01*
X136931790Y-50085079D01*
X136866247Y-50064887D01*
X136759829Y-50048968D01*
X136741872Y-50047361D01*
X136631114Y-50027568D01*
X136476698Y-49986471D01*
X136309915Y-49932508D01*
X136291270Y-49925828D01*
X136119618Y-49868262D01*
X135983387Y-49838465D01*
X135844472Y-49831099D01*
X135677450Y-49839856D01*
X135469009Y-49868599D01*
X135278822Y-49918306D01*
X135126458Y-49982194D01*
X135031480Y-50053483D01*
X135021626Y-50067161D01*
X134959359Y-50105953D01*
X134860553Y-50077012D01*
X134722934Y-49979611D01*
X134707961Y-49966944D01*
X134529349Y-49853998D01*
X134349766Y-49821558D01*
X134166526Y-49869513D01*
X134049620Y-49939775D01*
X133888749Y-50083383D01*
X133742180Y-50263234D01*
X133620803Y-50460249D01*
X133535509Y-50655350D01*
X133497188Y-50829456D01*
X133499238Y-50904005D01*
X133502975Y-50991091D01*
X133467894Y-51043629D01*
X133375163Y-51090348D01*
X133239748Y-51180089D01*
X133114887Y-51334620D01*
X132996314Y-51560036D01*
X132926450Y-51731753D01*
X132858152Y-51935327D01*
X132828971Y-52086430D01*
X132837305Y-52202190D01*
X132874365Y-52288371D01*
X132900982Y-52354138D01*
X132874206Y-52408795D01*
X132826986Y-52451195D01*
X132729210Y-52531306D01*
X132629718Y-52431814D01*
X132549548Y-52295924D01*
X132528125Y-52106879D01*
X132565472Y-51864016D01*
X132661617Y-51566671D01*
X132662995Y-51563113D01*
X132751325Y-51358029D01*
X132844525Y-51199145D01*
X132963134Y-51053567D01*
X133015433Y-50998669D01*
X133144589Y-50855789D01*
X133217882Y-50744210D01*
X133245270Y-50648654D01*
X133245498Y-50645715D01*
X133290465Y-50461085D01*
X133391585Y-50255461D01*
X133534263Y-50046536D01*
X133703905Y-49852007D01*
X133885915Y-49689567D01*
X134065699Y-49576910D01*
X134154558Y-49543580D01*
X134373489Y-49515282D01*
X134584684Y-49542882D01*
X134762182Y-49622135D01*
X134797286Y-49648709D01*
X134916385Y-49748924D01*
X135089780Y-49659401D01*
X135189769Y-49616077D01*
X135304498Y-49586451D01*
X135454548Y-49566958D01*
X135660502Y-49554032D01*
X135710213Y-49551921D01*
X135908876Y-49545114D01*
X136052701Y-49546202D01*
X136167388Y-49559169D01*
X136278637Y-49587997D01*
X136412151Y-49636672D01*
X136511212Y-49676087D01*
X136865174Y-49818210D01*
X137124127Y-49644539D01*
X137363268Y-49511216D01*
X137620039Y-49414139D01*
X137870774Y-49360097D01*
X138091805Y-49355884D01*
X138117635Y-49359432D01*
G37*
G36*
X145473372Y-51707598D02*
G01*
X145505548Y-51766550D01*
X145540774Y-51818519D01*
X145610146Y-51828393D01*
X145728926Y-51796790D01*
X145780757Y-51777675D01*
X145853585Y-51789735D01*
X145944974Y-51863173D01*
X145946798Y-51865132D01*
X146050146Y-51976646D01*
X146261566Y-51889017D01*
X146409891Y-51831081D01*
X146503622Y-51807210D01*
X146560802Y-51816459D01*
X146599476Y-51857881D01*
X146607117Y-51870903D01*
X146621328Y-51963700D01*
X146570650Y-52052521D01*
X146470802Y-52131200D01*
X146337500Y-52193569D01*
X146186462Y-52233461D01*
X146033404Y-52244709D01*
X145894045Y-52221146D01*
X145814738Y-52181822D01*
X145708163Y-52140493D01*
X145641525Y-52145164D01*
X145514973Y-52147206D01*
X145385630Y-52090556D01*
X145276561Y-51992898D01*
X145210832Y-51871917D01*
X145201428Y-51807744D01*
X145231841Y-51712986D01*
X145305192Y-51662286D01*
X145394647Y-51659278D01*
X145473372Y-51707598D01*
G37*
G36*
X136039227Y-51329432D02*
G01*
X136138903Y-51385716D01*
X136167286Y-51471758D01*
X136121391Y-51582863D01*
X136079603Y-51635475D01*
X135988889Y-51736822D01*
X136098343Y-51668311D01*
X136225492Y-51608583D01*
X136315293Y-51615520D01*
X136368569Y-51674203D01*
X136383357Y-51761941D01*
X136347381Y-51835703D01*
X136243519Y-51938247D01*
X136096199Y-52001857D01*
X135892191Y-52031171D01*
X135780611Y-52034401D01*
X135621494Y-52031355D01*
X135520134Y-52017144D01*
X135453865Y-51986490D01*
X135412806Y-51948705D01*
X135327522Y-51828981D01*
X135311198Y-51726373D01*
X135330517Y-51670357D01*
X135398662Y-51608333D01*
X135492872Y-51614780D01*
X135572460Y-51666526D01*
X135626890Y-51701325D01*
X135646190Y-51689064D01*
X135616586Y-51628175D01*
X135605873Y-51619960D01*
X135570183Y-51557267D01*
X135572055Y-51463505D01*
X135608292Y-51377182D01*
X135627746Y-51356473D01*
X135704791Y-51325265D01*
X135823885Y-51308561D01*
X135871239Y-51307600D01*
X136039227Y-51329432D01*
G37*
G36*
X137566731Y-51252784D02*
G01*
X137639262Y-51256288D01*
X137872759Y-51269191D01*
X138039237Y-51282251D01*
X138152284Y-51297714D01*
X138225489Y-51317825D01*
X138272439Y-51344832D01*
X138292796Y-51364319D01*
X138339725Y-51441138D01*
X138321500Y-51511447D01*
X138292881Y-51542904D01*
X138245297Y-51564733D01*
X138167542Y-51577637D01*
X138048408Y-51582320D01*
X137876690Y-51579483D01*
X137641180Y-51569829D01*
X137500793Y-51562910D01*
X137275010Y-51549325D01*
X137117908Y-51533153D01*
X137017539Y-51510961D01*
X136961955Y-51479317D01*
X136939207Y-51434788D01*
X136936349Y-51400771D01*
X136944996Y-51335853D01*
X136978028Y-51289951D01*
X137046081Y-51260880D01*
X137159792Y-51246452D01*
X137329797Y-51244483D01*
X137566731Y-51252784D01*
G37*
G36*
X147662391Y-50476393D02*
G01*
X147745632Y-50559401D01*
X147769742Y-50633145D01*
X147735082Y-50691835D01*
X147706625Y-50716459D01*
X147612955Y-50762041D01*
X147539932Y-50764840D01*
X147487647Y-50756006D01*
X147482274Y-50781812D01*
X147519378Y-50859290D01*
X147557000Y-50972692D01*
X147578205Y-51116567D01*
X147579910Y-51163462D01*
X147571163Y-51292544D01*
X147535837Y-51375480D01*
X147473928Y-51435605D01*
X147348480Y-51506856D01*
X147234833Y-51503438D01*
X147117395Y-51428452D01*
X147024451Y-51298250D01*
X146980957Y-51127672D01*
X146986853Y-50939991D01*
X147042078Y-50758476D01*
X147119431Y-50636060D01*
X147246759Y-50525493D01*
X147392705Y-50460433D01*
X147537755Y-50443270D01*
X147662391Y-50476393D01*
G37*
G36*
X134878104Y-50800341D02*
G01*
X135031130Y-50822831D01*
X135122175Y-50863657D01*
X135160049Y-50925556D01*
X135162381Y-50951204D01*
X135129166Y-51049798D01*
X135030021Y-51102675D01*
X134865694Y-51109460D01*
X134849204Y-51107946D01*
X134705802Y-51102015D01*
X134525548Y-51105876D01*
X134376190Y-51116230D01*
X134264348Y-51127710D01*
X134209979Y-51135768D01*
X134218106Y-51141276D01*
X134293751Y-51145109D01*
X134441937Y-51148137D01*
X134570349Y-51149965D01*
X134765166Y-51155898D01*
X134935769Y-51167238D01*
X135062841Y-51182311D01*
X135124714Y-51198045D01*
X135190535Y-51271037D01*
X135194723Y-51364659D01*
X135149246Y-51432702D01*
X135087303Y-51450722D01*
X134963701Y-51462946D01*
X134795784Y-51469691D01*
X134600898Y-51471272D01*
X134396385Y-51468007D01*
X134199592Y-51460212D01*
X134027862Y-51448204D01*
X133898540Y-51432299D01*
X133828969Y-51412814D01*
X133823746Y-51408508D01*
X133799800Y-51332376D01*
X133805460Y-51268884D01*
X133797171Y-51160304D01*
X133766687Y-51110753D01*
X133723821Y-51025007D01*
X133756715Y-50950409D01*
X133861070Y-50888497D01*
X134032586Y-50840807D01*
X134266965Y-50808876D01*
X134559905Y-50794241D01*
X134654286Y-50793452D01*
X134878104Y-50800341D01*
G37*
G36*
X137722581Y-50889383D02*
G01*
X137943448Y-50906509D01*
X138146680Y-50932538D01*
X138316097Y-50966649D01*
X138435521Y-51008019D01*
X138484052Y-51045565D01*
X138506820Y-51132830D01*
X138484298Y-51186547D01*
X138416446Y-51242044D01*
X138320683Y-51271437D01*
X138235807Y-51265355D01*
X138214415Y-51251730D01*
X138165847Y-51240101D01*
X138051442Y-51227473D01*
X137885967Y-51215053D01*
X137684192Y-51204047D01*
X137575092Y-51199482D01*
X137335637Y-51189287D01*
X137164412Y-51178473D01*
X137049020Y-51165266D01*
X136977066Y-51147895D01*
X136936152Y-51124587D01*
X136920644Y-51105912D01*
X136898076Y-51018114D01*
X136919982Y-50966083D01*
X136986340Y-50926358D01*
X137115958Y-50899648D01*
X137292657Y-50885130D01*
X137500258Y-50881982D01*
X137722581Y-50889383D01*
G37*
G36*
X145139593Y-50358940D02*
G01*
X145181156Y-50422539D01*
X145166442Y-50508780D01*
X145121564Y-50570885D01*
X145071075Y-50639960D01*
X145064714Y-50683615D01*
X145064806Y-50683707D01*
X145074386Y-50735380D01*
X145069579Y-50837192D01*
X145062268Y-50895289D01*
X145012427Y-51069817D01*
X144930274Y-51183454D01*
X144825439Y-51230977D01*
X144707549Y-51207162D01*
X144614993Y-51137983D01*
X144532318Y-51004020D01*
X144517327Y-50847276D01*
X144566043Y-50681939D01*
X144674491Y-50522201D01*
X144823974Y-50392129D01*
X144946329Y-50334921D01*
X145056426Y-50326796D01*
X145139593Y-50358940D01*
G37*
D11*
%TO.C,S1*%
X116550000Y-76100000D02*
X116550000Y-91300000D01*
X116550000Y-91300000D02*
X131750000Y-91300000D01*
X131750000Y-76100000D02*
X116550000Y-76100000D01*
X131750000Y-91300000D02*
X131750000Y-76100000D01*
%TO.C,S3*%
X167750000Y-91300000D02*
X167750000Y-76100000D01*
X167750000Y-76100000D02*
X152550000Y-76100000D01*
X152550000Y-91300000D02*
X167750000Y-91300000D01*
X152550000Y-76100000D02*
X152550000Y-91300000D01*
%TO.C,D12*%
X163800000Y-90965625D02*
X163800000Y-89815625D01*
X157650000Y-85465625D02*
X156500000Y-85465625D01*
X156500000Y-90965625D02*
X163800000Y-90965625D01*
X156500000Y-86615625D02*
X156500000Y-85465625D01*
%TO.C,D16*%
X120500000Y-120615625D02*
X120500000Y-119465625D01*
X120500000Y-124965625D02*
X127800000Y-124965625D01*
X121650000Y-119465625D02*
X120500000Y-119465625D01*
X127800000Y-124965625D02*
X127800000Y-123815625D01*
%TO.C,S8*%
X149750000Y-125300000D02*
X149750000Y-110100000D01*
X149750000Y-110100000D02*
X134550000Y-110100000D01*
X134550000Y-125300000D02*
X149750000Y-125300000D01*
X134550000Y-110100000D02*
X134550000Y-125300000D01*
%TO.C,R4*%
X168066359Y-57305000D02*
X168373641Y-57305000D01*
X168066359Y-56545000D02*
X168373641Y-56545000D01*
%TO.C,S9*%
X167750000Y-125300000D02*
X167750000Y-110100000D01*
X167750000Y-110100000D02*
X152550000Y-110100000D01*
X152550000Y-125300000D02*
X167750000Y-125300000D01*
X152550000Y-110100000D02*
X152550000Y-125300000D01*
%TO.C,R5*%
X159593641Y-57305000D02*
X159286359Y-57305000D01*
X159593641Y-56545000D02*
X159286359Y-56545000D01*
%TO.C,D14*%
X145800000Y-107965625D02*
X145800000Y-106815625D01*
X139650000Y-102465625D02*
X138500000Y-102465625D01*
X138500000Y-107965625D02*
X145800000Y-107965625D01*
X138500000Y-103615625D02*
X138500000Y-102465625D01*
%TO.C,S5*%
X149750000Y-108300000D02*
X149750000Y-93100000D01*
X149750000Y-93100000D02*
X134550000Y-93100000D01*
X134550000Y-108300000D02*
X149750000Y-108300000D01*
X134550000Y-93100000D02*
X134550000Y-108300000D01*
%TO.C,D17*%
X138500000Y-120615625D02*
X138500000Y-119465625D01*
X138500000Y-124965625D02*
X145800000Y-124965625D01*
X139650000Y-119465625D02*
X138500000Y-119465625D01*
X145800000Y-124965625D02*
X145800000Y-123815625D01*
%TO.C,S4*%
X131750000Y-108300000D02*
X131750000Y-93100000D01*
X131750000Y-93100000D02*
X116550000Y-93100000D01*
X116550000Y-108300000D02*
X131750000Y-108300000D01*
X116550000Y-93100000D02*
X116550000Y-108300000D01*
%TO.C,D11*%
X145800000Y-90965625D02*
X145800000Y-89815625D01*
X139650000Y-85465625D02*
X138500000Y-85465625D01*
X138500000Y-90965625D02*
X145800000Y-90965625D01*
X138500000Y-86615625D02*
X138500000Y-85465625D01*
%TO.C,D15*%
X163800000Y-107965625D02*
X163800000Y-106815625D01*
X157650000Y-102465625D02*
X156500000Y-102465625D01*
X156500000Y-107965625D02*
X163800000Y-107965625D01*
X156500000Y-103615625D02*
X156500000Y-102465625D01*
%TO.C,S6*%
X152550000Y-93100000D02*
X152550000Y-108300000D01*
X152550000Y-108300000D02*
X167750000Y-108300000D01*
X167750000Y-93100000D02*
X152550000Y-93100000D01*
X167750000Y-108300000D02*
X167750000Y-93100000D01*
%TO.C,D18*%
X156500000Y-120615625D02*
X156500000Y-119465625D01*
X156500000Y-124965625D02*
X163800000Y-124965625D01*
X157650000Y-119465625D02*
X156500000Y-119465625D01*
X163800000Y-124965625D02*
X163800000Y-123815625D01*
%TO.C,D13*%
X127800000Y-107965625D02*
X127800000Y-106815625D01*
X121650000Y-102465625D02*
X120500000Y-102465625D01*
X120500000Y-107965625D02*
X127800000Y-107965625D01*
X120500000Y-103615625D02*
X120500000Y-102465625D01*
%TO.C,S7*%
X131750000Y-125300000D02*
X131750000Y-110100000D01*
X131750000Y-110100000D02*
X116550000Y-110100000D01*
X116550000Y-125300000D02*
X131750000Y-125300000D01*
X116550000Y-110100000D02*
X116550000Y-125300000D01*
%TO.C,D10*%
X120500000Y-86615625D02*
X120500000Y-85465625D01*
X120500000Y-90965625D02*
X127800000Y-90965625D01*
X121650000Y-85465625D02*
X120500000Y-85465625D01*
X127800000Y-90965625D02*
X127800000Y-89815625D01*
D12*
%TO.C,SW2*%
X125400000Y-62012500D02*
G75*
G02*
X119400000Y-62012500I-3000000J0D01*
G01*
X119400000Y-62012500D02*
G75*
G02*
X125400000Y-62012500I3000000J0D01*
G01*
D11*
%TO.C,S2*%
X149750000Y-91300000D02*
X149750000Y-76100000D01*
X149750000Y-76100000D02*
X134550000Y-76100000D01*
X134550000Y-91300000D02*
X149750000Y-91300000D01*
X134550000Y-76100000D02*
X134550000Y-91300000D01*
%TD*%
M02*
